<svg id="bb9ae117-52e9-4957-9d64-5505350b69e8" data-name="Слой 1" xmlns="http://www.w3.org/2000/svg" viewBox="0 0 523.76 197.41"><path d="M243.4,16.5a4.62,4.62,0,0,1-1.13,3,22.29,22.29,0,0,1-6.37,4.9,22.91,22.91,0,0,1-7.36,2.44,22.65,22.65,0,0,1,1.84-6.38,21.79,21.79,0,0,1,5.25-7.4,4.6,4.6,0,0,1,3.13-1.23A4.66,4.66,0,0,1,243.4,16.5Z" style="fill:#d01b17;stroke:#d01b17;stroke-miterlimit:10;stroke-width:0.25px"/><path d="M243.4,40.08a4.62,4.62,0,0,0-1.13-3,22.29,22.29,0,0,0-6.37-4.9,22.91,22.91,0,0,0-7.36-2.44,22.65,22.65,0,0,0,1.84,6.38,21.79,21.79,0,0,0,5.25,7.4,4.6,4.6,0,0,0,3.13,1.23A4.66,4.66,0,0,0,243.4,40.08Z" style="fill:#d01b17;stroke:#d01b17;stroke-miterlimit:10;stroke-width:0.25px"/><path d="M210.48,16.5a4.62,4.62,0,0,0,1.13,3,22.29,22.29,0,0,0,6.37,4.9,22.91,22.91,0,0,0,7.36,2.44,22.65,22.65,0,0,0-1.84-6.38,21.79,21.79,0,0,0-5.25-7.4,4.6,4.6,0,0,0-3.13-1.23A4.66,4.66,0,0,0,210.48,16.5Z" style="stroke:#1d1d1b;stroke-miterlimit:10;stroke-width:0.25px"/><path d="M210.48,40.08a4.62,4.62,0,0,1,1.13-3,22.29,22.29,0,0,1,6.37-4.9,22.91,22.91,0,0,1,7.36-2.44,22.65,22.65,0,0,1-1.84,6.38,21.79,21.79,0,0,1-5.25,7.4,4.6,4.6,0,0,1-3.13,1.23A4.66,4.66,0,0,1,210.48,40.08Z" style="stroke:#1d1d1b;stroke-miterlimit:10;stroke-width:0.25px"/><path d="M278.07,16.5a4.62,4.62,0,0,1-1.13,3,22.29,22.29,0,0,1-6.37,4.9,22.91,22.91,0,0,1-7.36,2.44,22.65,22.65,0,0,1,1.84-6.38,21.79,21.79,0,0,1,5.25-7.4,4.6,4.6,0,0,1,3.13-1.23A4.66,4.66,0,0,1,278.07,16.5Z" style="fill:#d01b17;stroke:#d01b17;stroke-miterlimit:10;stroke-width:0.25px"/><polygon points="274.68 28.29 262.41 29.29 261.61 41.11 260.92 29.3 249.04 28.29 260.92 27.34 261.61 15.48 262.42 27.34 274.68 28.29" style="fill:none;stroke:#d01b17;stroke-miterlimit:10;stroke-width:0.25px"/><path d="M278.07,40.08a4.62,4.62,0,0,0-1.13-3,22.29,22.29,0,0,0-6.37-4.9,22.91,22.91,0,0,0-7.36-2.44,22.65,22.65,0,0,0,1.84,6.38,21.79,21.79,0,0,0,5.25,7.4,4.6,4.6,0,0,0,3.13,1.23A4.66,4.66,0,0,0,278.07,40.08Z" style="fill:#d01b17;stroke:#d01b17;stroke-miterlimit:10;stroke-width:0.25px"/><path d="M245.15,16.51a4.62,4.62,0,0,0,1.13,3,22.29,22.29,0,0,0,6.37,4.9A22.91,22.91,0,0,0,260,26.88a22.65,22.65,0,0,0-1.84-6.38,21.79,21.79,0,0,0-5.25-7.4,4.6,4.6,0,0,0-3.13-1.23A4.66,4.66,0,0,0,245.15,16.51Z" style="fill:#d01b17;stroke:#d01b17;stroke-miterlimit:10;stroke-width:0.25px"/><path d="M245.15,40.09a4.62,4.62,0,0,1,1.13-3,22.29,22.29,0,0,1,6.37-4.9A22.91,22.91,0,0,1,260,29.72a22.65,22.65,0,0,1-1.84,6.38,21.79,21.79,0,0,1-5.25,7.4,4.6,4.6,0,0,1-3.13,1.23A4.66,4.66,0,0,1,245.15,40.09Z" style="fill:#d01b17;stroke:#d01b17;stroke-miterlimit:10;stroke-width:0.25px"/><path d="M175.82,16.5a4.62,4.62,0,0,0,1.13,3,22.29,22.29,0,0,0,6.37,4.9,22.91,22.91,0,0,0,7.36,2.44,22.65,22.65,0,0,0-1.84-6.38,21.79,21.79,0,0,0-5.25-7.4,4.6,4.6,0,0,0-3.13-1.23A4.66,4.66,0,0,0,175.82,16.5Z" style="stroke:#1d1d1b;stroke-miterlimit:10;stroke-width:0.25px"/><polygon points="179.21 28.29 191.48 29.29 192.28 41.11 192.97 29.3 204.85 28.29 192.97 27.34 192.28 15.48 191.47 27.34 179.21 28.29" style="fill:none;stroke:#1d1d1b;stroke-miterlimit:10;stroke-width:0.25px"/><path d="M175.82,40.08a4.62,4.62,0,0,1,1.13-3,22.29,22.29,0,0,1,6.37-4.9,22.91,22.91,0,0,1,7.36-2.44,22.65,22.65,0,0,1-1.84,6.38,21.79,21.79,0,0,1-5.25,7.4,4.6,4.6,0,0,1-3.13,1.23A4.66,4.66,0,0,1,175.82,40.08Z" style="stroke:#1d1d1b;stroke-miterlimit:10;stroke-width:0.25px"/><path d="M208.74,16.51a4.62,4.62,0,0,1-1.13,3,22.29,22.29,0,0,1-6.37,4.9,22.91,22.91,0,0,1-7.36,2.44,22.65,22.65,0,0,1,1.84-6.38A21.79,21.79,0,0,1,201,13.1a4.6,4.6,0,0,1,3.13-1.23A4.66,4.66,0,0,1,208.74,16.51Z" style="stroke:#1d1d1b;stroke-miterlimit:10;stroke-width:0.25px"/><path d="M208.74,40.09a4.62,4.62,0,0,0-1.13-3,22.29,22.29,0,0,0-6.37-4.9,22.91,22.91,0,0,0-7.36-2.44,22.65,22.65,0,0,0,1.84,6.38A21.79,21.79,0,0,0,201,43.5a4.6,4.6,0,0,0,3.13,1.23A4.66,4.66,0,0,0,208.74,40.09Z" style="stroke:#1d1d1b;stroke-miterlimit:10;stroke-width:0.25px"/><path d="M243.4,51a4.62,4.62,0,0,1-1.13,3,22.29,22.29,0,0,1-6.37,4.9,22.91,22.91,0,0,1-7.36,2.44A22.65,22.65,0,0,1,230.38,55a21.79,21.79,0,0,1,5.25-7.4,4.6,4.6,0,0,1,3.13-1.23A4.66,4.66,0,0,1,243.4,51Z" style="fill:#d01b17;stroke:#d01b17;stroke-miterlimit:10;stroke-width:0.25px"/><path d="M243.4,74.58a4.62,4.62,0,0,0-1.13-3,22.29,22.29,0,0,0-6.37-4.9,22.91,22.91,0,0,0-7.36-2.44,22.65,22.65,0,0,0,1.84,6.38,21.79,21.79,0,0,0,5.25,7.4,4.6,4.6,0,0,0,3.13,1.23A4.66,4.66,0,0,0,243.4,74.58Z" style="fill:#d01b17;stroke:#d01b17;stroke-miterlimit:10;stroke-width:0.25px"/><path d="M210.48,51a4.62,4.62,0,0,0,1.13,3,22.29,22.29,0,0,0,6.37,4.9,22.91,22.91,0,0,0,7.36,2.44A22.65,22.65,0,0,0,223.5,55a21.79,21.79,0,0,0-5.25-7.4,4.6,4.6,0,0,0-3.13-1.23A4.66,4.66,0,0,0,210.48,51Z" style="stroke:#1d1d1b;stroke-miterlimit:10;stroke-width:0.25px"/><path d="M210.48,74.59a4.62,4.62,0,0,1,1.13-3,22.29,22.29,0,0,1,6.37-4.9,22.91,22.91,0,0,1,7.36-2.44,22.65,22.65,0,0,1-1.84,6.38,21.79,21.79,0,0,1-5.25,7.4,4.6,4.6,0,0,1-3.13,1.23A4.66,4.66,0,0,1,210.48,74.59Z" style="stroke:#1d1d1b;stroke-miterlimit:10;stroke-width:0.25px"/><path d="M278.06,51a4.62,4.62,0,0,1-1.13,3,22.29,22.29,0,0,1-6.37,4.9,22.91,22.91,0,0,1-7.36,2.44A22.65,22.65,0,0,1,265,55a21.79,21.79,0,0,1,5.25-7.4,4.6,4.6,0,0,1,3.13-1.23A4.66,4.66,0,0,1,278.06,51Z" style="fill:#d01b17;stroke:#d01b17;stroke-miterlimit:10;stroke-width:0.25px"/><polygon points="274.67 62.79 262.4 63.79 261.6 75.61 260.91 63.8 249.03 62.79 260.91 61.84 261.6 49.98 262.41 61.84 274.67 62.79" style="fill:none;stroke:#d01b17;stroke-miterlimit:10;stroke-width:0.25px"/><path d="M278.06,74.58a4.62,4.62,0,0,0-1.13-3,22.29,22.29,0,0,0-6.37-4.9,22.91,22.91,0,0,0-7.36-2.44A22.65,22.65,0,0,0,265,70.59a21.79,21.79,0,0,0,5.25,7.4,4.6,4.6,0,0,0,3.13,1.23A4.66,4.66,0,0,0,278.06,74.58Z" style="fill:#d01b17;stroke:#d01b17;stroke-miterlimit:10;stroke-width:0.25px"/><path d="M245.14,51a4.62,4.62,0,0,0,1.13,3,22.29,22.29,0,0,0,6.37,4.9A22.91,22.91,0,0,0,260,61.38,22.65,22.65,0,0,0,258.16,55a21.79,21.79,0,0,0-5.25-7.4,4.6,4.6,0,0,0-3.13-1.23A4.66,4.66,0,0,0,245.14,51Z" style="fill:#d01b17;stroke:#d01b17;stroke-miterlimit:10;stroke-width:0.25px"/><path d="M245.14,74.59a4.62,4.62,0,0,1,1.13-3,22.29,22.29,0,0,1,6.37-4.9A22.91,22.91,0,0,1,260,64.22a22.65,22.65,0,0,1-1.84,6.38,21.79,21.79,0,0,1-5.25,7.4,4.6,4.6,0,0,1-3.13,1.23A4.66,4.66,0,0,1,245.14,74.59Z" style="fill:#d01b17;stroke:#d01b17;stroke-miterlimit:10;stroke-width:0.25px"/><path d="M175.81,51a4.62,4.62,0,0,0,1.13,3,22.29,22.29,0,0,0,6.37,4.9,22.91,22.91,0,0,0,7.36,2.44A22.65,22.65,0,0,0,188.83,55a21.79,21.79,0,0,0-5.25-7.4,4.6,4.6,0,0,0-3.13-1.23A4.66,4.66,0,0,0,175.81,51Z" style="stroke:#1d1d1b;stroke-miterlimit:10;stroke-width:0.25px"/><polygon points="179.2 62.79 191.47 63.79 192.27 75.61 192.96 63.8 204.84 62.79 192.96 61.84 192.27 49.98 191.46 61.84 179.2 62.79" style="fill:none;stroke:#1d1d1b;stroke-miterlimit:10;stroke-width:0.25px"/><path d="M175.81,74.58a4.62,4.62,0,0,1,1.13-3,22.29,22.29,0,0,1,6.37-4.9,22.91,22.91,0,0,1,7.36-2.44,22.65,22.65,0,0,1-1.84,6.38,21.79,21.79,0,0,1-5.25,7.4,4.6,4.6,0,0,1-3.13,1.23A4.66,4.66,0,0,1,175.81,74.58Z" style="stroke:#1d1d1b;stroke-miterlimit:10;stroke-width:0.25px"/><path d="M208.73,51a4.62,4.62,0,0,1-1.13,3,22.29,22.29,0,0,1-6.37,4.9,22.91,22.91,0,0,1-7.36,2.44A22.65,22.65,0,0,1,195.71,55,21.79,21.79,0,0,1,201,47.6a4.6,4.6,0,0,1,3.13-1.23A4.66,4.66,0,0,1,208.73,51Z" style="stroke:#1d1d1b;stroke-miterlimit:10;stroke-width:0.25px"/><path d="M208.73,74.59a4.62,4.62,0,0,0-1.13-3,22.29,22.29,0,0,0-6.37-4.9,22.91,22.91,0,0,0-7.36-2.44,22.65,22.65,0,0,0,1.84,6.38A21.79,21.79,0,0,0,201,78a4.6,4.6,0,0,0,3.13,1.23A4.66,4.66,0,0,0,208.73,74.59Z" style="stroke:#1d1d1b;stroke-miterlimit:10;stroke-width:0.25px"/><path d="M347.41,16.5a4.62,4.62,0,0,1-1.13,3,22.29,22.29,0,0,1-6.37,4.9,22.91,22.91,0,0,1-7.36,2.44,22.65,22.65,0,0,1,1.84-6.38,21.79,21.79,0,0,1,5.25-7.4,4.6,4.6,0,0,1,3.13-1.23A4.66,4.66,0,0,1,347.41,16.5Z" style="stroke:#1d1d1b;stroke-miterlimit:10;stroke-width:0.25px"/><polygon points="344.02 28.29 331.75 29.29 330.95 41.11 330.26 29.3 318.38 28.29 330.26 27.34 330.95 15.48 331.76 27.34 344.02 28.29" style="fill:none;stroke:#1d1d1b;stroke-miterlimit:10;stroke-width:0.25px"/><path d="M347.41,40.08a4.62,4.62,0,0,0-1.13-3,22.29,22.29,0,0,0-6.37-4.9,22.91,22.91,0,0,0-7.36-2.44,22.65,22.65,0,0,0,1.84,6.38,21.79,21.79,0,0,0,5.25,7.4,4.6,4.6,0,0,0,3.13,1.23A4.66,4.66,0,0,0,347.41,40.08Z" style="stroke:#1d1d1b;stroke-miterlimit:10;stroke-width:0.25px"/><path d="M314.49,16.51a4.62,4.62,0,0,0,1.13,3,22.29,22.29,0,0,0,6.37,4.9,22.91,22.91,0,0,0,7.36,2.44,22.65,22.65,0,0,0-1.84-6.38,21.79,21.79,0,0,0-5.25-7.4,4.6,4.6,0,0,0-3.13-1.23A4.66,4.66,0,0,0,314.49,16.51Z" style="stroke:#1d1d1b;stroke-miterlimit:10;stroke-width:0.25px"/><path d="M314.49,40.09a4.62,4.62,0,0,1,1.13-3,22.29,22.29,0,0,1,6.37-4.9,22.91,22.91,0,0,1,7.36-2.44,22.65,22.65,0,0,1-1.84,6.38,21.79,21.79,0,0,1-5.25,7.4,4.6,4.6,0,0,1-3.13,1.23A4.66,4.66,0,0,1,314.49,40.09Z" style="stroke:#1d1d1b;stroke-miterlimit:10;stroke-width:0.25px"/><path d="M347.4,51a4.62,4.62,0,0,1-1.13,3,22.29,22.29,0,0,1-6.37,4.9,22.91,22.91,0,0,1-7.36,2.44A22.65,22.65,0,0,1,334.38,55a21.79,21.79,0,0,1,5.25-7.4,4.6,4.6,0,0,1,3.13-1.23A4.66,4.66,0,0,1,347.4,51Z" style="stroke:#1d1d1b;stroke-miterlimit:10;stroke-width:0.25px"/><polygon points="344.01 62.79 331.74 63.79 330.94 75.61 330.25 63.8 318.37 62.79 330.25 61.84 330.94 49.98 331.75 61.84 344.01 62.79" style="fill:none;stroke:#1d1d1b;stroke-miterlimit:10;stroke-width:0.25px"/><path d="M347.4,74.58a4.62,4.62,0,0,0-1.13-3,22.29,22.29,0,0,0-6.37-4.9,22.91,22.91,0,0,0-7.36-2.44,22.65,22.65,0,0,0,1.84,6.38,21.79,21.79,0,0,0,5.25,7.4,4.6,4.6,0,0,0,3.13,1.23A4.66,4.66,0,0,0,347.4,74.58Z" style="stroke:#1d1d1b;stroke-miterlimit:10;stroke-width:0.25px"/><path d="M314.48,51a4.62,4.62,0,0,0,1.13,3,22.29,22.29,0,0,0,6.37,4.9,22.91,22.91,0,0,0,7.36,2.44A22.65,22.65,0,0,0,327.5,55a21.79,21.79,0,0,0-5.25-7.4,4.6,4.6,0,0,0-3.13-1.23A4.66,4.66,0,0,0,314.48,51Z" style="stroke:#1d1d1b;stroke-miterlimit:10;stroke-width:0.25px"/><path d="M314.48,74.59a4.62,4.62,0,0,1,1.13-3,22.29,22.29,0,0,1,6.37-4.9,22.91,22.91,0,0,1,7.36-2.44,22.65,22.65,0,0,1-1.84,6.38,21.79,21.79,0,0,1-5.25,7.4,4.6,4.6,0,0,1-3.13,1.23A4.66,4.66,0,0,1,314.48,74.59Z" style="stroke:#1d1d1b;stroke-miterlimit:10;stroke-width:0.25px"/><path d="M243.4,109.09a4.62,4.62,0,0,0-1.13-3,22.29,22.29,0,0,0-6.37-4.9,22.91,22.91,0,0,0-7.36-2.44,22.65,22.65,0,0,0,1.84,6.38,21.79,21.79,0,0,0,5.25,7.4,4.6,4.6,0,0,0,3.13,1.23A4.66,4.66,0,0,0,243.4,109.09Z" style="fill:#d01b17;stroke:#d01b17;stroke-miterlimit:10;stroke-width:0.25px"/><path d="M243.4,85.51a4.62,4.62,0,0,1-1.13,3,22.29,22.29,0,0,1-6.37,4.9,22.91,22.91,0,0,1-7.36,2.44,22.65,22.65,0,0,1,1.84-6.38,21.79,21.79,0,0,1,5.25-7.4,4.6,4.6,0,0,1,3.13-1.23A4.66,4.66,0,0,1,243.4,85.51Z" style="fill:#d01b17;stroke:#d01b17;stroke-miterlimit:10;stroke-width:0.25px"/><path d="M210.48,109.08a4.62,4.62,0,0,1,1.13-3,22.29,22.29,0,0,1,6.37-4.9,22.91,22.91,0,0,1,7.36-2.44,22.65,22.65,0,0,1-1.84,6.38,21.79,21.79,0,0,1-5.25,7.4,4.6,4.6,0,0,1-3.13,1.23A4.66,4.66,0,0,1,210.48,109.08Z" style="stroke:#1d1d1b;stroke-miterlimit:10;stroke-width:0.25px"/><path d="M210.48,85.5a4.62,4.62,0,0,0,1.13,3,22.29,22.29,0,0,0,6.37,4.9,22.91,22.91,0,0,0,7.36,2.44,22.65,22.65,0,0,0-1.84-6.38,21.79,21.79,0,0,0-5.25-7.4,4.6,4.6,0,0,0-3.13-1.23A4.66,4.66,0,0,0,210.48,85.5Z" style="stroke:#1d1d1b;stroke-miterlimit:10;stroke-width:0.25px"/><path d="M278.07,109.09a4.62,4.62,0,0,0-1.13-3,22.29,22.29,0,0,0-6.37-4.9,22.91,22.91,0,0,0-7.36-2.44,22.65,22.65,0,0,0,1.84,6.38,21.79,21.79,0,0,0,5.25,7.4,4.6,4.6,0,0,0,3.13,1.23A4.66,4.66,0,0,0,278.07,109.09Z" style="fill:#d01b17;stroke:#d01b17;stroke-miterlimit:10;stroke-width:0.25px"/><polygon points="274.68 97.3 262.41 96.3 261.61 84.47 260.92 96.28 249.04 97.3 260.92 98.25 261.61 110.11 262.42 98.25 274.68 97.3" style="fill:none;stroke:#d01b17;stroke-miterlimit:10;stroke-width:0.25px"/><path d="M278.07,85.51a4.62,4.62,0,0,1-1.13,3,22.29,22.29,0,0,1-6.37,4.9,22.91,22.91,0,0,1-7.36,2.44,22.65,22.65,0,0,1,1.84-6.38,21.79,21.79,0,0,1,5.25-7.4,4.6,4.6,0,0,1,3.13-1.23A4.66,4.66,0,0,1,278.07,85.51Z" style="fill:#d01b17;stroke:#d01b17;stroke-miterlimit:10;stroke-width:0.25px"/><path d="M245.15,109.08a4.62,4.62,0,0,1,1.13-3,22.29,22.29,0,0,1,6.37-4.9A22.91,22.91,0,0,1,260,98.71a22.65,22.65,0,0,1-1.84,6.38,21.79,21.79,0,0,1-5.25,7.4,4.6,4.6,0,0,1-3.13,1.23A4.66,4.66,0,0,1,245.15,109.08Z" style="fill:#d01b17;stroke:#d01b17;stroke-miterlimit:10;stroke-width:0.25px"/><path d="M245.15,85.5a4.62,4.62,0,0,0,1.13,3,22.29,22.29,0,0,0,6.37,4.9A22.91,22.91,0,0,0,260,95.87a22.65,22.65,0,0,0-1.84-6.38,21.79,21.79,0,0,0-5.25-7.4,4.6,4.6,0,0,0-3.13-1.23A4.66,4.66,0,0,0,245.15,85.5Z" style="fill:#d01b17;stroke:#d01b17;stroke-miterlimit:10;stroke-width:0.25px"/><path d="M175.82,109.09a4.62,4.62,0,0,1,1.13-3,22.29,22.29,0,0,1,6.37-4.9,22.91,22.91,0,0,1,7.36-2.44,22.65,22.65,0,0,1-1.84,6.38,21.79,21.79,0,0,1-5.25,7.4,4.6,4.6,0,0,1-3.13,1.23A4.66,4.66,0,0,1,175.82,109.09Z" style="stroke:#1d1d1b;stroke-miterlimit:10;stroke-width:0.25px"/><polygon points="179.21 97.3 191.48 96.3 192.28 84.47 192.97 96.28 204.85 97.3 192.97 98.25 192.28 110.11 191.47 98.25 179.21 97.3" style="fill:none;stroke:#1d1d1b;stroke-miterlimit:10;stroke-width:0.25px"/><path d="M175.82,85.51a4.62,4.62,0,0,0,1.13,3,22.29,22.29,0,0,0,6.37,4.9,22.91,22.91,0,0,0,7.36,2.44,22.65,22.65,0,0,0-1.84-6.38,21.79,21.79,0,0,0-5.25-7.4,4.6,4.6,0,0,0-3.13-1.23A4.66,4.66,0,0,0,175.82,85.51Z" style="stroke:#1d1d1b;stroke-miterlimit:10;stroke-width:0.25px"/><path d="M208.74,109.08a4.62,4.62,0,0,0-1.13-3,22.29,22.29,0,0,0-6.37-4.9,22.91,22.91,0,0,0-7.36-2.44,22.65,22.65,0,0,0,1.84,6.38,21.79,21.79,0,0,0,5.25,7.4,4.6,4.6,0,0,0,3.13,1.23A4.66,4.66,0,0,0,208.74,109.08Z" style="stroke:#1d1d1b;stroke-miterlimit:10;stroke-width:0.25px"/><path d="M208.74,85.5a4.62,4.62,0,0,1-1.13,3,22.29,22.29,0,0,1-6.37,4.9,22.91,22.91,0,0,1-7.36,2.44,22.65,22.65,0,0,1,1.84-6.38,21.79,21.79,0,0,1,5.25-7.4,4.6,4.6,0,0,1,3.13-1.23A4.66,4.66,0,0,1,208.74,85.5Z" style="stroke:#1d1d1b;stroke-miterlimit:10;stroke-width:0.25px"/><path d="M347.41,109.09a4.62,4.62,0,0,0-1.13-3,22.29,22.29,0,0,0-6.37-4.9,22.91,22.91,0,0,0-7.36-2.44,22.65,22.65,0,0,0,1.84,6.38,21.79,21.79,0,0,0,5.25,7.4,4.6,4.6,0,0,0,3.13,1.23A4.66,4.66,0,0,0,347.41,109.09Z" style="stroke:#1d1d1b;stroke-miterlimit:10;stroke-width:0.25px"/><polygon points="344.02 97.3 331.75 96.3 330.95 84.47 330.26 96.28 318.38 97.3 330.26 98.25 330.95 110.11 331.76 98.25 344.02 97.3" style="fill:none;stroke:#1d1d1b;stroke-miterlimit:10;stroke-width:0.25px"/><path d="M347.41,85.51a4.62,4.62,0,0,1-1.13,3,22.29,22.29,0,0,1-6.37,4.9,22.91,22.91,0,0,1-7.36,2.44,22.65,22.65,0,0,1,1.84-6.38,21.79,21.79,0,0,1,5.25-7.4,4.6,4.6,0,0,1,3.13-1.23A4.66,4.66,0,0,1,347.41,85.51Z" style="stroke:#1d1d1b;stroke-miterlimit:10;stroke-width:0.25px"/><path d="M314.49,109.08a4.62,4.62,0,0,1,1.13-3,22.29,22.29,0,0,1,6.37-4.9,22.91,22.91,0,0,1,7.36-2.44,22.65,22.65,0,0,1-1.84,6.38,21.79,21.79,0,0,1-5.25,7.4,4.6,4.6,0,0,1-3.13,1.23A4.66,4.66,0,0,1,314.49,109.08Z" style="stroke:#1d1d1b;stroke-miterlimit:10;stroke-width:0.25px"/><path d="M314.49,85.5a4.62,4.62,0,0,0,1.13,3,22.29,22.29,0,0,0,6.37,4.9,22.91,22.91,0,0,0,7.36,2.44,22.65,22.65,0,0,0-1.84-6.38,21.79,21.79,0,0,0-5.25-7.4,4.6,4.6,0,0,0-3.13-1.23A4.66,4.66,0,0,0,314.49,85.5Z" style="stroke:#1d1d1b;stroke-miterlimit:10;stroke-width:0.25px"/><path d="M243.4,178.09a4.62,4.62,0,0,0-1.13-3,22.29,22.29,0,0,0-6.37-4.9,22.91,22.91,0,0,0-7.36-2.44,22.65,22.65,0,0,0,1.84,6.38,21.79,21.79,0,0,0,5.25,7.4,4.6,4.6,0,0,0,3.13,1.23A4.66,4.66,0,0,0,243.4,178.09Z" style="stroke:#1d1d1b;stroke-miterlimit:10;stroke-width:0.25px"/><polygon points="240.01 166.3 227.74 165.3 226.94 153.48 226.25 165.29 214.37 166.3 226.25 167.25 226.94 179.11 227.75 167.25 240.01 166.3" style="fill:none;stroke:#1d1d1b;stroke-miterlimit:10;stroke-width:0.25px"/><path d="M243.4,154.51a4.62,4.62,0,0,1-1.13,3,22.29,22.29,0,0,1-6.37,4.9,22.91,22.91,0,0,1-7.36,2.44,22.65,22.65,0,0,1,1.84-6.38,21.79,21.79,0,0,1,5.25-7.4,4.6,4.6,0,0,1,3.13-1.23A4.66,4.66,0,0,1,243.4,154.51Z" style="stroke:#1d1d1b;stroke-miterlimit:10;stroke-width:0.25px"/><path d="M210.48,178.09a4.62,4.62,0,0,1,1.13-3,22.29,22.29,0,0,1,6.37-4.9,22.91,22.91,0,0,1,7.36-2.44,22.65,22.65,0,0,1-1.84,6.38,21.79,21.79,0,0,1-5.25,7.4,4.6,4.6,0,0,1-3.13,1.23A4.66,4.66,0,0,1,210.48,178.09Z" style="stroke:#1d1d1b;stroke-miterlimit:10;stroke-width:0.25px"/><path d="M210.48,154.51a4.62,4.62,0,0,0,1.13,3,22.29,22.29,0,0,0,6.37,4.9,22.91,22.91,0,0,0,7.36,2.44,22.65,22.65,0,0,0-1.84-6.38,21.79,21.79,0,0,0-5.25-7.4,4.6,4.6,0,0,0-3.13-1.23A4.66,4.66,0,0,0,210.48,154.51Z" style="stroke:#1d1d1b;stroke-miterlimit:10;stroke-width:0.25px"/><path d="M278.07,178.09a4.62,4.62,0,0,0-1.13-3,22.29,22.29,0,0,0-6.37-4.9,22.91,22.91,0,0,0-7.36-2.44,22.65,22.65,0,0,0,1.84,6.38,21.79,21.79,0,0,0,5.25,7.4,4.6,4.6,0,0,0,3.13,1.23A4.66,4.66,0,0,0,278.07,178.09Z" style="stroke:#1d1d1b;stroke-miterlimit:10;stroke-width:0.25px"/><polygon points="274.68 166.3 262.41 165.3 261.61 153.48 260.92 165.29 249.04 166.3 260.92 167.25 261.61 179.11 262.42 167.25 274.68 166.3" style="fill:none;stroke:#1d1d1b;stroke-miterlimit:10;stroke-width:0.25px"/><path d="M278.07,154.51a4.62,4.62,0,0,1-1.13,3,22.29,22.29,0,0,1-6.37,4.9,22.91,22.91,0,0,1-7.36,2.44,22.65,22.65,0,0,1,1.84-6.38,21.79,21.79,0,0,1,5.25-7.4,4.6,4.6,0,0,1,3.13-1.23A4.66,4.66,0,0,1,278.07,154.51Z" style="stroke:#1d1d1b;stroke-miterlimit:10;stroke-width:0.25px"/><path d="M245.15,178.08a4.62,4.62,0,0,1,1.13-3,22.29,22.29,0,0,1,6.37-4.9,22.91,22.91,0,0,1,7.36-2.44,22.65,22.65,0,0,1-1.84,6.38,21.79,21.79,0,0,1-5.25,7.4,4.6,4.6,0,0,1-3.13,1.23A4.66,4.66,0,0,1,245.15,178.08Z" style="stroke:#1d1d1b;stroke-miterlimit:10;stroke-width:0.25px"/><path d="M245.15,154.5a4.62,4.62,0,0,0,1.13,3,22.29,22.29,0,0,0,6.37,4.9,22.91,22.91,0,0,0,7.36,2.44,22.65,22.65,0,0,0-1.84-6.38,21.79,21.79,0,0,0-5.25-7.4,4.6,4.6,0,0,0-3.13-1.23A4.66,4.66,0,0,0,245.15,154.5Z" style="stroke:#1d1d1b;stroke-miterlimit:10;stroke-width:0.25px"/><path d="M175.82,178.09a4.62,4.62,0,0,1,1.13-3,22.29,22.29,0,0,1,6.37-4.9,22.91,22.91,0,0,1,7.36-2.44,22.65,22.65,0,0,1-1.84,6.38,21.79,21.79,0,0,1-5.25,7.4,4.6,4.6,0,0,1-3.13,1.23A4.66,4.66,0,0,1,175.82,178.09Z" style="stroke:#1d1d1b;stroke-miterlimit:10;stroke-width:0.25px"/><polygon points="179.21 166.3 191.48 165.3 192.28 153.48 192.97 165.29 204.85 166.3 192.97 167.25 192.28 179.11 191.47 167.25 179.21 166.3" style="fill:none;stroke:#1d1d1b;stroke-miterlimit:10;stroke-width:0.25px"/><path d="M175.82,154.51a4.62,4.62,0,0,0,1.13,3,22.29,22.29,0,0,0,6.37,4.9,22.91,22.91,0,0,0,7.36,2.44,22.65,22.65,0,0,0-1.84-6.38,21.79,21.79,0,0,0-5.25-7.4,4.6,4.6,0,0,0-3.13-1.23A4.66,4.66,0,0,0,175.82,154.51Z" style="stroke:#1d1d1b;stroke-miterlimit:10;stroke-width:0.25px"/><path d="M208.74,178.08a4.62,4.62,0,0,0-1.13-3,22.29,22.29,0,0,0-6.37-4.9,22.91,22.91,0,0,0-7.36-2.44,22.65,22.65,0,0,0,1.84,6.38,21.79,21.79,0,0,0,5.25,7.4,4.6,4.6,0,0,0,3.13,1.23A4.66,4.66,0,0,0,208.74,178.08Z" style="stroke:#1d1d1b;stroke-miterlimit:10;stroke-width:0.25px"/><path d="M208.74,154.5a4.62,4.62,0,0,1-1.13,3,22.29,22.29,0,0,1-6.37,4.9,22.91,22.91,0,0,1-7.36,2.44,22.65,22.65,0,0,1,1.84-6.38,21.79,21.79,0,0,1,5.25-7.4,4.6,4.6,0,0,1,3.13-1.23A4.66,4.66,0,0,1,208.74,154.5Z" style="stroke:#1d1d1b;stroke-miterlimit:10;stroke-width:0.25px"/><path d="M243.4,143.59a4.62,4.62,0,0,0-1.13-3,22.29,22.29,0,0,0-6.37-4.9,22.91,22.91,0,0,0-7.36-2.44,22.65,22.65,0,0,0,1.84,6.38,21.79,21.79,0,0,0,5.25,7.4,4.6,4.6,0,0,0,3.13,1.23A4.66,4.66,0,0,0,243.4,143.59Z" style="fill:#d01b17;stroke:#d01b17;stroke-miterlimit:10;stroke-width:0.25px"/><path d="M243.4,120a4.62,4.62,0,0,1-1.13,3,22.29,22.29,0,0,1-6.37,4.9,22.91,22.91,0,0,1-7.36,2.44,22.65,22.65,0,0,1,1.84-6.38,21.79,21.79,0,0,1,5.25-7.4,4.6,4.6,0,0,1,3.13-1.23A4.66,4.66,0,0,1,243.4,120Z" style="fill:#d01b17;stroke:#d01b17;stroke-miterlimit:10;stroke-width:0.25px"/><path d="M210.48,143.58a4.62,4.62,0,0,1,1.13-3,22.29,22.29,0,0,1,6.37-4.9,22.91,22.91,0,0,1,7.36-2.44,22.65,22.65,0,0,1-1.84,6.38,21.79,21.79,0,0,1-5.25,7.4,4.6,4.6,0,0,1-3.13,1.23A4.66,4.66,0,0,1,210.48,143.58Z" style="stroke:#1d1d1b;stroke-miterlimit:10;stroke-width:0.25px"/><path d="M210.48,120a4.62,4.62,0,0,0,1.13,3,22.29,22.29,0,0,0,6.37,4.9,22.91,22.91,0,0,0,7.36,2.44A22.65,22.65,0,0,0,223.5,124a21.79,21.79,0,0,0-5.25-7.4,4.6,4.6,0,0,0-3.13-1.23A4.66,4.66,0,0,0,210.48,120Z" style="stroke:#1d1d1b;stroke-miterlimit:10;stroke-width:0.25px"/><path d="M278.06,143.59a4.62,4.62,0,0,0-1.13-3,22.29,22.29,0,0,0-6.37-4.9,22.91,22.91,0,0,0-7.36-2.44A22.65,22.65,0,0,0,265,139.6a21.79,21.79,0,0,0,5.25,7.4,4.6,4.6,0,0,0,3.13,1.23A4.66,4.66,0,0,0,278.06,143.59Z" style="fill:#d01b17;stroke:#d01b17;stroke-miterlimit:10;stroke-width:0.25px"/><polygon points="274.67 131.8 262.4 130.8 261.6 118.98 260.91 130.79 249.03 131.8 260.91 132.75 261.6 144.61 262.41 132.75 274.67 131.8" style="fill:none;stroke:#d01b17;stroke-miterlimit:10;stroke-width:0.25px"/><path d="M278.06,120a4.62,4.62,0,0,1-1.13,3,22.29,22.29,0,0,1-6.37,4.9,22.91,22.91,0,0,1-7.36,2.44A22.65,22.65,0,0,1,265,124a21.79,21.79,0,0,1,5.25-7.4,4.6,4.6,0,0,1,3.13-1.23A4.66,4.66,0,0,1,278.06,120Z" style="fill:#d01b17;stroke:#d01b17;stroke-miterlimit:10;stroke-width:0.25px"/><path d="M245.14,143.58a4.62,4.62,0,0,1,1.13-3,22.29,22.29,0,0,1,6.37-4.9,22.91,22.91,0,0,1,7.36-2.44,22.65,22.65,0,0,1-1.84,6.38,21.79,21.79,0,0,1-5.25,7.4,4.6,4.6,0,0,1-3.13,1.23A4.66,4.66,0,0,1,245.14,143.58Z" style="fill:#d01b17;stroke:#d01b17;stroke-miterlimit:10;stroke-width:0.25px"/><path d="M245.14,120a4.62,4.62,0,0,0,1.13,3,22.29,22.29,0,0,0,6.37,4.9,22.91,22.91,0,0,0,7.36,2.44,22.65,22.65,0,0,0-1.84-6.38,21.79,21.79,0,0,0-5.25-7.4,4.6,4.6,0,0,0-3.13-1.23A4.66,4.66,0,0,0,245.14,120Z" style="fill:#d01b17;stroke:#d01b17;stroke-miterlimit:10;stroke-width:0.25px"/><path d="M175.81,143.59a4.62,4.62,0,0,1,1.13-3,22.29,22.29,0,0,1,6.37-4.9,22.91,22.91,0,0,1,7.36-2.44,22.65,22.65,0,0,1-1.84,6.38,21.79,21.79,0,0,1-5.25,7.4,4.6,4.6,0,0,1-3.13,1.23A4.66,4.66,0,0,1,175.81,143.59Z" style="stroke:#1d1d1b;stroke-miterlimit:10;stroke-width:0.25px"/><polygon points="179.2 131.8 191.47 130.8 192.27 118.98 192.96 130.79 204.84 131.8 192.96 132.75 192.27 144.61 191.46 132.75 179.2 131.8" style="fill:none;stroke:#1d1d1b;stroke-miterlimit:10;stroke-width:0.25px"/><path d="M175.81,120a4.62,4.62,0,0,0,1.13,3,22.29,22.29,0,0,0,6.37,4.9,22.91,22.91,0,0,0,7.36,2.44,22.65,22.65,0,0,0-1.84-6.38,21.79,21.79,0,0,0-5.25-7.4,4.6,4.6,0,0,0-3.13-1.23A4.66,4.66,0,0,0,175.81,120Z" style="stroke:#1d1d1b;stroke-miterlimit:10;stroke-width:0.25px"/><path d="M208.73,143.58a4.62,4.62,0,0,0-1.13-3,22.29,22.29,0,0,0-6.37-4.9,22.91,22.91,0,0,0-7.36-2.44,22.65,22.65,0,0,0,1.84,6.38A21.79,21.79,0,0,0,201,147a4.6,4.6,0,0,0,3.13,1.23A4.66,4.66,0,0,0,208.73,143.58Z" style="stroke:#1d1d1b;stroke-miterlimit:10;stroke-width:0.25px"/><path d="M208.73,120a4.62,4.62,0,0,1-1.13,3,22.29,22.29,0,0,1-6.37,4.9,22.91,22.91,0,0,1-7.36,2.44,22.65,22.65,0,0,1,1.84-6.38,21.79,21.79,0,0,1,5.25-7.4,4.6,4.6,0,0,1,3.13-1.23A4.66,4.66,0,0,1,208.73,120Z" style="stroke:#1d1d1b;stroke-miterlimit:10;stroke-width:0.25px"/><path d="M279.82,178.09a4.62,4.62,0,0,1,1.13-3,22.29,22.29,0,0,1,6.37-4.9,22.91,22.91,0,0,1,7.36-2.44,22.65,22.65,0,0,1-1.84,6.38,21.79,21.79,0,0,1-5.25,7.4,4.6,4.6,0,0,1-3.13,1.23A4.66,4.66,0,0,1,279.82,178.09Z" style="stroke:#1d1d1b;stroke-miterlimit:10;stroke-width:0.25px"/><polygon points="283.21 166.3 295.48 165.3 296.28 153.48 296.97 165.29 308.85 166.3 296.97 167.25 296.28 179.11 295.47 167.25 283.21 166.3" style="fill:none;stroke:#1d1d1b;stroke-miterlimit:10;stroke-width:0.25px"/><path d="M279.82,154.51a4.62,4.62,0,0,0,1.13,3,22.29,22.29,0,0,0,6.37,4.9,22.91,22.91,0,0,0,7.36,2.44,22.65,22.65,0,0,0-1.84-6.38,21.79,21.79,0,0,0-5.25-7.4,4.6,4.6,0,0,0-3.13-1.23A4.66,4.66,0,0,0,279.82,154.51Z" style="stroke:#1d1d1b;stroke-miterlimit:10;stroke-width:0.25px"/><path d="M312.74,178.09a4.62,4.62,0,0,0-1.13-3,22.29,22.29,0,0,0-6.37-4.9,22.91,22.91,0,0,0-7.36-2.44,22.65,22.65,0,0,0,1.84,6.38,21.79,21.79,0,0,0,5.25,7.4,4.6,4.6,0,0,0,3.13,1.23A4.66,4.66,0,0,0,312.74,178.09Z" style="stroke:#1d1d1b;stroke-miterlimit:10;stroke-width:0.25px"/><path d="M312.74,154.51a4.62,4.62,0,0,1-1.13,3,22.29,22.29,0,0,1-6.37,4.9,22.91,22.91,0,0,1-7.36,2.44,22.65,22.65,0,0,1,1.84-6.38,21.79,21.79,0,0,1,5.25-7.4,4.6,4.6,0,0,1,3.13-1.23A4.66,4.66,0,0,1,312.74,154.51Z" style="stroke:#1d1d1b;stroke-miterlimit:10;stroke-width:0.25px"/><path d="M347.41,178.09a4.62,4.62,0,0,0-1.13-3,22.29,22.29,0,0,0-6.37-4.9,22.91,22.91,0,0,0-7.36-2.44,22.65,22.65,0,0,0,1.84,6.38,21.79,21.79,0,0,0,5.25,7.4,4.6,4.6,0,0,0,3.13,1.23A4.66,4.66,0,0,0,347.41,178.09Z" style="stroke:#1d1d1b;stroke-miterlimit:10;stroke-width:0.25px"/><polygon points="344.02 166.3 331.75 165.3 330.95 153.48 330.26 165.29 318.38 166.3 330.26 167.25 330.95 179.11 331.76 167.25 344.02 166.3" style="fill:none;stroke:#1d1d1b;stroke-miterlimit:10;stroke-width:0.25px"/><path d="M347.41,154.51a4.62,4.62,0,0,1-1.13,3,22.29,22.29,0,0,1-6.37,4.9,22.91,22.91,0,0,1-7.36,2.44,22.65,22.65,0,0,1,1.84-6.38,21.79,21.79,0,0,1,5.25-7.4,4.6,4.6,0,0,1,3.13-1.23A4.66,4.66,0,0,1,347.41,154.51Z" style="stroke:#1d1d1b;stroke-miterlimit:10;stroke-width:0.25px"/><path d="M314.49,178.08a4.62,4.62,0,0,1,1.13-3,22.29,22.29,0,0,1,6.37-4.9,22.91,22.91,0,0,1,7.36-2.44,22.65,22.65,0,0,1-1.84,6.38,21.79,21.79,0,0,1-5.25,7.4,4.6,4.6,0,0,1-3.13,1.23A4.66,4.66,0,0,1,314.49,178.08Z" style="stroke:#1d1d1b;stroke-miterlimit:10;stroke-width:0.25px"/><path d="M314.49,154.5a4.62,4.62,0,0,0,1.13,3,22.29,22.29,0,0,0,6.37,4.9,22.91,22.91,0,0,0,7.36,2.44,22.65,22.65,0,0,0-1.84-6.38,21.79,21.79,0,0,0-5.25-7.4,4.6,4.6,0,0,0-3.13-1.23A4.66,4.66,0,0,0,314.49,154.5Z" style="stroke:#1d1d1b;stroke-miterlimit:10;stroke-width:0.25px"/><path d="M347.4,143.59a4.62,4.62,0,0,0-1.13-3,22.29,22.29,0,0,0-6.37-4.9,22.91,22.91,0,0,0-7.36-2.44,22.65,22.65,0,0,0,1.84,6.38,21.79,21.79,0,0,0,5.25,7.4,4.6,4.6,0,0,0,3.13,1.23A4.66,4.66,0,0,0,347.4,143.59Z" style="stroke:#1d1d1b;stroke-miterlimit:10;stroke-width:0.25px"/><polygon points="344.01 131.8 331.74 130.8 330.94 118.98 330.25 130.79 318.37 131.8 330.25 132.75 330.94 144.61 331.75 132.75 344.01 131.8" style="fill:none;stroke:#1d1d1b;stroke-miterlimit:10;stroke-width:0.25px"/><path d="M347.4,120a4.62,4.62,0,0,1-1.13,3,22.29,22.29,0,0,1-6.37,4.9,22.91,22.91,0,0,1-7.36,2.44,22.65,22.65,0,0,1,1.84-6.38,21.79,21.79,0,0,1,5.25-7.4,4.6,4.6,0,0,1,3.13-1.23A4.66,4.66,0,0,1,347.4,120Z" style="stroke:#1d1d1b;stroke-miterlimit:10;stroke-width:0.25px"/><path d="M314.48,143.58a4.62,4.62,0,0,1,1.13-3,22.29,22.29,0,0,1,6.37-4.9,22.91,22.91,0,0,1,7.36-2.44,22.65,22.65,0,0,1-1.84,6.38,21.79,21.79,0,0,1-5.25,7.4,4.6,4.6,0,0,1-3.13,1.23A4.66,4.66,0,0,1,314.48,143.58Z" style="stroke:#1d1d1b;stroke-miterlimit:10;stroke-width:0.25px"/><path d="M314.48,120a4.62,4.62,0,0,0,1.13,3,22.29,22.29,0,0,0,6.37,4.9,22.91,22.91,0,0,0,7.36,2.44A22.65,22.65,0,0,0,327.5,124a21.79,21.79,0,0,0-5.25-7.4,4.6,4.6,0,0,0-3.13-1.23A4.66,4.66,0,0,0,314.48,120Z" style="stroke:#1d1d1b;stroke-miterlimit:10;stroke-width:0.25px"/><line x1="226.94" y1="118.98" x2="227.74" y2="130.8" style="fill:none;stroke:#e30d13;stroke-miterlimit:10;stroke-width:0.25px"/><line x1="240.01" y1="131.8" x2="227.74" y2="130.8" style="fill:none;stroke:#e30d13;stroke-miterlimit:10;stroke-width:0.25px"/><line x1="227.75" y1="132.75" x2="240.01" y2="131.8" style="fill:none;stroke:#e30d13;stroke-miterlimit:10;stroke-width:0.25px"/><line x1="226.94" y1="144.61" x2="227.75" y2="132.75" style="fill:none;stroke:#e30d13;stroke-miterlimit:10;stroke-width:0.25px"/><line x1="226.94" y1="118.98" x2="226.25" y2="130.79" style="fill:none;stroke:#1d1d1b;stroke-miterlimit:10;stroke-width:0.25px"/><line x1="214.37" y1="131.8" x2="226.25" y2="130.79" style="fill:none;stroke:#1d1d1b;stroke-miterlimit:10;stroke-width:0.25px"/><line x1="226.25" y1="132.75" x2="214.37" y2="131.8" style="fill:none;stroke:#1d1d1b;stroke-miterlimit:10;stroke-width:0.25px"/><line x1="226.94" y1="144.61" x2="226.25" y2="132.75" style="fill:none;stroke:#1d1d1b;stroke-miterlimit:10;stroke-width:0.25px"/><line x1="226.94" y1="84.48" x2="227.74" y2="96.3" style="fill:none;stroke:#e30d13;stroke-miterlimit:10;stroke-width:0.25px"/><line x1="240.01" y1="97.3" x2="227.74" y2="96.3" style="fill:none;stroke:#e30d13;stroke-miterlimit:10;stroke-width:0.25px"/><line x1="227.75" y1="98.25" x2="240.01" y2="97.3" style="fill:none;stroke:#e30d13;stroke-miterlimit:10;stroke-width:0.25px"/><line x1="226.94" y1="110.11" x2="227.75" y2="98.25" style="fill:none;stroke:#e30d13;stroke-miterlimit:10;stroke-width:0.25px"/><line x1="226.94" y1="84.48" x2="226.25" y2="96.29" style="fill:none;stroke:#1d1d1b;stroke-miterlimit:10;stroke-width:0.25px"/><line x1="214.37" y1="97.3" x2="226.25" y2="96.29" style="fill:none;stroke:#1d1d1b;stroke-miterlimit:10;stroke-width:0.25px"/><line x1="226.25" y1="98.25" x2="214.37" y2="97.3" style="fill:none;stroke:#1d1d1b;stroke-miterlimit:10;stroke-width:0.25px"/><line x1="226.94" y1="110.11" x2="226.25" y2="98.25" style="fill:none;stroke:#1d1d1b;stroke-miterlimit:10;stroke-width:0.25px"/><line x1="226.94" y1="49.98" x2="227.74" y2="61.8" style="fill:none;stroke:#e30d13;stroke-miterlimit:10;stroke-width:0.25px"/><line x1="240.01" y1="62.8" x2="227.74" y2="61.8" style="fill:none;stroke:#e30d13;stroke-miterlimit:10;stroke-width:0.25px"/><line x1="227.75" y1="63.75" x2="240.01" y2="62.8" style="fill:none;stroke:#e30d13;stroke-miterlimit:10;stroke-width:0.25px"/><line x1="226.94" y1="75.61" x2="227.75" y2="63.75" style="fill:none;stroke:#e30d13;stroke-miterlimit:10;stroke-width:0.25px"/><line x1="226.94" y1="49.98" x2="226.25" y2="61.79" style="fill:none;stroke:#1d1d1b;stroke-miterlimit:10;stroke-width:0.25px"/><line x1="214.37" y1="62.8" x2="226.25" y2="61.79" style="fill:none;stroke:#1d1d1b;stroke-miterlimit:10;stroke-width:0.25px"/><line x1="226.25" y1="63.75" x2="214.37" y2="62.8" style="fill:none;stroke:#1d1d1b;stroke-miterlimit:10;stroke-width:0.25px"/><line x1="226.94" y1="75.61" x2="226.25" y2="63.75" style="fill:none;stroke:#1d1d1b;stroke-miterlimit:10;stroke-width:0.25px"/><line x1="226.94" y1="15.48" x2="227.74" y2="27.3" style="fill:none;stroke:#e30d13;stroke-miterlimit:10;stroke-width:0.25px"/><line x1="240.01" y1="28.3" x2="227.74" y2="27.3" style="fill:none;stroke:#e30d13;stroke-miterlimit:10;stroke-width:0.25px"/><line x1="227.75" y1="29.25" x2="240.01" y2="28.3" style="fill:none;stroke:#e30d13;stroke-miterlimit:10;stroke-width:0.25px"/><line x1="226.94" y1="41.11" x2="227.75" y2="29.25" style="fill:none;stroke:#e30d13;stroke-miterlimit:10;stroke-width:0.25px"/><line x1="226.94" y1="15.48" x2="226.25" y2="27.29" style="fill:none;stroke:#1d1d1b;stroke-miterlimit:10;stroke-width:0.25px"/><line x1="214.37" y1="28.3" x2="226.25" y2="27.29" style="fill:none;stroke:#1d1d1b;stroke-miterlimit:10;stroke-width:0.25px"/><line x1="226.25" y1="29.25" x2="214.37" y2="28.3" style="fill:none;stroke:#1d1d1b;stroke-miterlimit:10;stroke-width:0.25px"/><line x1="226.94" y1="41.11" x2="226.25" y2="29.25" style="fill:none;stroke:#1d1d1b;stroke-miterlimit:10;stroke-width:0.25px"/><path d="M279.8,16.5a4.62,4.62,0,0,0,1.13,3,22.29,22.29,0,0,0,6.37,4.9,22.91,22.91,0,0,0,7.36,2.44,22.65,22.65,0,0,0-1.84-6.38,21.79,21.79,0,0,0-5.25-7.4,4.6,4.6,0,0,0-3.13-1.23A4.66,4.66,0,0,0,279.8,16.5Z" style="fill:#d01b17;stroke:#d01b17;stroke-miterlimit:10;stroke-width:0.25px"/><path d="M279.8,40.08a4.62,4.62,0,0,1,1.13-3,22.29,22.29,0,0,1,6.37-4.9,22.91,22.91,0,0,1,7.36-2.44,22.65,22.65,0,0,1-1.84,6.38,21.79,21.79,0,0,1-5.25,7.4,4.6,4.6,0,0,1-3.13,1.23A4.66,4.66,0,0,1,279.8,40.08Z" style="fill:#d01b17;stroke:#d01b17;stroke-miterlimit:10;stroke-width:0.25px"/><path d="M312.72,16.5a4.62,4.62,0,0,1-1.13,3,22.29,22.29,0,0,1-6.37,4.9,22.91,22.91,0,0,1-7.36,2.44,22.65,22.65,0,0,1,1.84-6.38,21.79,21.79,0,0,1,5.25-7.4,4.6,4.6,0,0,1,3.13-1.23A4.66,4.66,0,0,1,312.72,16.5Z" style="stroke:#1d1d1b;stroke-miterlimit:10;stroke-width:0.25px"/><path d="M312.72,40.08a4.62,4.62,0,0,0-1.13-3,22.29,22.29,0,0,0-6.37-4.9,22.91,22.91,0,0,0-7.36-2.44,22.65,22.65,0,0,0,1.84,6.38,21.79,21.79,0,0,0,5.25,7.4,4.6,4.6,0,0,0,3.13,1.23A4.66,4.66,0,0,0,312.72,40.08Z" style="stroke:#1d1d1b;stroke-miterlimit:10;stroke-width:0.25px"/><path d="M279.81,51a4.62,4.62,0,0,0,1.13,3,22.29,22.29,0,0,0,6.37,4.9,22.91,22.91,0,0,0,7.36,2.44A22.65,22.65,0,0,0,292.83,55a21.79,21.79,0,0,0-5.25-7.4,4.6,4.6,0,0,0-3.13-1.23A4.66,4.66,0,0,0,279.81,51Z" style="fill:#d01b17;stroke:#d01b17;stroke-miterlimit:10;stroke-width:0.25px"/><path d="M279.81,74.58a4.62,4.62,0,0,1,1.13-3,22.29,22.29,0,0,1,6.37-4.9,22.91,22.91,0,0,1,7.36-2.44,22.65,22.65,0,0,1-1.84,6.38,21.79,21.79,0,0,1-5.25,7.4,4.6,4.6,0,0,1-3.13,1.23A4.66,4.66,0,0,1,279.81,74.58Z" style="fill:#d01b17;stroke:#d01b17;stroke-miterlimit:10;stroke-width:0.25px"/><path d="M312.73,51a4.62,4.62,0,0,1-1.13,3,22.29,22.29,0,0,1-6.37,4.9,22.91,22.91,0,0,1-7.36,2.44A22.65,22.65,0,0,1,299.71,55,21.79,21.79,0,0,1,305,47.6a4.6,4.6,0,0,1,3.13-1.23A4.66,4.66,0,0,1,312.73,51Z" style="stroke:#1d1d1b;stroke-miterlimit:10;stroke-width:0.25px"/><path d="M312.73,74.59a4.62,4.62,0,0,0-1.13-3,22.29,22.29,0,0,0-6.37-4.9,22.91,22.91,0,0,0-7.36-2.44,22.65,22.65,0,0,0,1.84,6.38A21.79,21.79,0,0,0,305,78a4.6,4.6,0,0,0,3.13,1.23A4.66,4.66,0,0,0,312.73,74.59Z" style="stroke:#1d1d1b;stroke-miterlimit:10;stroke-width:0.25px"/><path d="M279.8,109.09a4.62,4.62,0,0,1,1.13-3,22.29,22.29,0,0,1,6.37-4.9,22.91,22.91,0,0,1,7.36-2.44,22.65,22.65,0,0,1-1.84,6.38,21.79,21.79,0,0,1-5.25,7.4,4.6,4.6,0,0,1-3.13,1.23A4.66,4.66,0,0,1,279.8,109.09Z" style="fill:#d01b17;stroke:#d01b17;stroke-miterlimit:10;stroke-width:0.25px"/><path d="M279.8,85.51a4.62,4.62,0,0,0,1.13,3,22.29,22.29,0,0,0,6.37,4.9,22.91,22.91,0,0,0,7.36,2.44,22.65,22.65,0,0,0-1.84-6.38,21.79,21.79,0,0,0-5.25-7.4,4.6,4.6,0,0,0-3.13-1.23A4.66,4.66,0,0,0,279.8,85.51Z" style="fill:#d01b17;stroke:#d01b17;stroke-miterlimit:10;stroke-width:0.25px"/><path d="M312.72,109.08a4.62,4.62,0,0,0-1.13-3,22.29,22.29,0,0,0-6.37-4.9,22.91,22.91,0,0,0-7.36-2.44,22.65,22.65,0,0,0,1.84,6.38,21.79,21.79,0,0,0,5.25,7.4,4.6,4.6,0,0,0,3.13,1.23A4.66,4.66,0,0,0,312.72,109.08Z" style="stroke:#1d1d1b;stroke-miterlimit:10;stroke-width:0.25px"/><path d="M312.72,85.5a4.62,4.62,0,0,1-1.13,3,22.29,22.29,0,0,1-6.37,4.9,22.91,22.91,0,0,1-7.36,2.44,22.65,22.65,0,0,1,1.84-6.38,21.79,21.79,0,0,1,5.25-7.4,4.6,4.6,0,0,1,3.13-1.23A4.66,4.66,0,0,1,312.72,85.5Z" style="stroke:#1d1d1b;stroke-miterlimit:10;stroke-width:0.25px"/><path d="M279.81,143.59a4.62,4.62,0,0,1,1.13-3,22.29,22.29,0,0,1,6.37-4.9,22.91,22.91,0,0,1,7.36-2.44,22.65,22.65,0,0,1-1.84,6.38,21.79,21.79,0,0,1-5.25,7.4,4.6,4.6,0,0,1-3.13,1.23A4.66,4.66,0,0,1,279.81,143.59Z" style="fill:#d01b17;stroke:#d01b17;stroke-miterlimit:10;stroke-width:0.25px"/><path d="M279.81,120a4.62,4.62,0,0,0,1.13,3,22.29,22.29,0,0,0,6.37,4.9,22.91,22.91,0,0,0,7.36,2.44,22.65,22.65,0,0,0-1.84-6.38,21.79,21.79,0,0,0-5.25-7.4,4.6,4.6,0,0,0-3.13-1.23A4.66,4.66,0,0,0,279.81,120Z" style="fill:#d01b17;stroke:#d01b17;stroke-miterlimit:10;stroke-width:0.25px"/><path d="M312.73,143.58a4.62,4.62,0,0,0-1.13-3,22.29,22.29,0,0,0-6.37-4.9,22.91,22.91,0,0,0-7.36-2.44,22.65,22.65,0,0,0,1.84,6.38A21.79,21.79,0,0,0,305,147a4.6,4.6,0,0,0,3.13,1.23A4.66,4.66,0,0,0,312.73,143.58Z" style="stroke:#1d1d1b;stroke-miterlimit:10;stroke-width:0.25px"/><path d="M312.73,120a4.62,4.62,0,0,1-1.13,3,22.29,22.29,0,0,1-6.37,4.9,22.91,22.91,0,0,1-7.36,2.44,22.65,22.65,0,0,1,1.84-6.38,21.79,21.79,0,0,1,5.25-7.4,4.6,4.6,0,0,1,3.13-1.23A4.66,4.66,0,0,1,312.73,120Z" style="stroke:#1d1d1b;stroke-miterlimit:10;stroke-width:0.25px"/><line x1="296.27" y1="118.98" x2="295.47" y2="130.8" style="fill:none;stroke:#e30d13;stroke-miterlimit:10;stroke-width:0.25px"/><line x1="283.2" y1="131.8" x2="295.47" y2="130.8" style="fill:none;stroke:#e30d13;stroke-miterlimit:10;stroke-width:0.25px"/><line x1="295.46" y1="132.75" x2="283.2" y2="131.8" style="fill:none;stroke:#e30d13;stroke-miterlimit:10;stroke-width:0.25px"/><line x1="296.27" y1="144.61" x2="295.46" y2="132.75" style="fill:none;stroke:#e30d13;stroke-miterlimit:10;stroke-width:0.25px"/><line x1="296.27" y1="118.98" x2="296.96" y2="130.79" style="fill:none;stroke:#1d1d1b;stroke-miterlimit:10;stroke-width:0.25px"/><line x1="308.84" y1="131.8" x2="296.96" y2="130.79" style="fill:none;stroke:#1d1d1b;stroke-miterlimit:10;stroke-width:0.25px"/><line x1="296.96" y1="132.75" x2="308.84" y2="131.8" style="fill:none;stroke:#1d1d1b;stroke-miterlimit:10;stroke-width:0.25px"/><line x1="296.27" y1="144.61" x2="296.96" y2="132.75" style="fill:none;stroke:#1d1d1b;stroke-miterlimit:10;stroke-width:0.25px"/><line x1="296.26" y1="84.48" x2="295.46" y2="96.3" style="fill:none;stroke:#e30d13;stroke-miterlimit:10;stroke-width:0.25px"/><line x1="283.19" y1="97.3" x2="295.46" y2="96.3" style="fill:none;stroke:#e30d13;stroke-miterlimit:10;stroke-width:0.25px"/><line x1="295.45" y1="98.25" x2="283.19" y2="97.3" style="fill:none;stroke:#e30d13;stroke-miterlimit:10;stroke-width:0.25px"/><line x1="296.26" y1="110.11" x2="295.45" y2="98.25" style="fill:none;stroke:#e30d13;stroke-miterlimit:10;stroke-width:0.25px"/><line x1="296.26" y1="84.48" x2="296.95" y2="96.29" style="fill:none;stroke:#1d1d1b;stroke-miterlimit:10;stroke-width:0.25px"/><line x1="308.83" y1="97.3" x2="296.95" y2="96.29" style="fill:none;stroke:#1d1d1b;stroke-miterlimit:10;stroke-width:0.25px"/><line x1="296.95" y1="98.25" x2="308.83" y2="97.3" style="fill:none;stroke:#1d1d1b;stroke-miterlimit:10;stroke-width:0.25px"/><line x1="296.26" y1="110.11" x2="296.95" y2="98.25" style="fill:none;stroke:#1d1d1b;stroke-miterlimit:10;stroke-width:0.25px"/><line x1="296.27" y1="49.98" x2="295.47" y2="61.8" style="fill:none;stroke:#e30d13;stroke-miterlimit:10;stroke-width:0.25px"/><line x1="283.2" y1="62.8" x2="295.47" y2="61.8" style="fill:none;stroke:#e30d13;stroke-miterlimit:10;stroke-width:0.25px"/><line x1="295.46" y1="63.75" x2="283.2" y2="62.8" style="fill:none;stroke:#e30d13;stroke-miterlimit:10;stroke-width:0.25px"/><line x1="296.27" y1="75.61" x2="295.46" y2="63.75" style="fill:none;stroke:#e30d13;stroke-miterlimit:10;stroke-width:0.25px"/><line x1="296.27" y1="49.98" x2="296.96" y2="61.79" style="fill:none;stroke:#1d1d1b;stroke-miterlimit:10;stroke-width:0.25px"/><line x1="308.84" y1="62.8" x2="296.96" y2="61.79" style="fill:none;stroke:#1d1d1b;stroke-miterlimit:10;stroke-width:0.25px"/><line x1="296.96" y1="63.75" x2="308.84" y2="62.8" style="fill:none;stroke:#1d1d1b;stroke-miterlimit:10;stroke-width:0.25px"/><line x1="296.27" y1="75.61" x2="296.96" y2="63.75" style="fill:none;stroke:#1d1d1b;stroke-miterlimit:10;stroke-width:0.25px"/><line x1="296.26" y1="15.48" x2="295.46" y2="27.3" style="fill:none;stroke:#e30d13;stroke-miterlimit:10;stroke-width:0.25px"/><line x1="283.19" y1="28.3" x2="295.46" y2="27.3" style="fill:none;stroke:#e30d13;stroke-miterlimit:10;stroke-width:0.25px"/><line x1="295.45" y1="29.25" x2="283.19" y2="28.3" style="fill:none;stroke:#e30d13;stroke-miterlimit:10;stroke-width:0.25px"/><line x1="296.26" y1="41.11" x2="295.45" y2="29.25" style="fill:none;stroke:#e30d13;stroke-miterlimit:10;stroke-width:0.25px"/><line x1="296.26" y1="15.48" x2="296.95" y2="27.29" style="fill:none;stroke:#1d1d1b;stroke-miterlimit:10;stroke-width:0.25px"/><line x1="308.83" y1="28.3" x2="296.95" y2="27.29" style="fill:none;stroke:#1d1d1b;stroke-miterlimit:10;stroke-width:0.25px"/><line x1="296.95" y1="29.25" x2="308.83" y2="28.3" style="fill:none;stroke:#1d1d1b;stroke-miterlimit:10;stroke-width:0.25px"/><line x1="296.26" y1="41.11" x2="296.95" y2="29.25" style="fill:none;stroke:#1d1d1b;stroke-miterlimit:10;stroke-width:0.25px"/><path d="M19.43,11.9H38.81Q56,11.9,56,25.45q0,6.72-5.9,11.18,8.57,3.7,8.56,13.24A14.52,14.52,0,0,1,48.38,64.4a28,28,0,0,1-7.58.82h-3V51.51h2.69a6.68,6.68,0,0,0,3.36-.61,2.29,2.29,0,0,0,1-2.12q0-2.58-4-2.58H37.79V32c2.92,0,4.37-1,4.37-3q0-2.77-3.94-2.77H35.29v39H19.43Z" style="fill:none;stroke:#1d1d1b;stroke-miterlimit:10;stroke-width:2px"/><path d="M64,65.22V26.78A16.21,16.21,0,0,1,68.34,15.1a14.87,14.87,0,0,1,11.25-4.53q8.2,0,12.61,7.54A17.7,17.7,0,0,1,98,12.31a15.34,15.34,0,0,1,7.62-1.74q7.19,0,11,4.53t3.83,13.05V65.22H104.59V30.53a9.28,9.28,0,0,0-.41-3.42,1.68,1.68,0,0,0-1.66-.83c-1.57,0-2.35,1.32-2.35,4v35H84.31V30.53a8.76,8.76,0,0,0-.43-3.4,1.68,1.68,0,0,0-1.68-.85c-1.56,0-2.34,1.41-2.34,4.25V65.22Z" style="fill:none;stroke:#1d1d1b;stroke-miterlimit:10;stroke-width:2px"/><path d="M130.06,11.9h19.37q17.22,0,17.23,13.55,0,6.72-5.9,11.18,8.55,3.7,8.55,13.24A14.52,14.52,0,0,1,159,64.4a27.89,27.89,0,0,1-7.58.82h-3V51.51h2.7a6.68,6.68,0,0,0,3.36-.61,2.29,2.29,0,0,0,1-2.12q0-2.58-4-2.58h-3.05V32q4.38,0,4.38-3,0-2.77-3.95-2.77h-2.93v39H130.06Z" style="fill:none;stroke:#1d1d1b;stroke-miterlimit:10;stroke-width:2px"/><path d="M367.55,173.69v-6.47c1.48,0,2.22-.57,2.22-1.7s-.56-1.55-1.69-1.55-1.72.71-1.72,2.13v16.11H359V166.86a13.26,13.26,0,0,1,.48-3.91,7.92,7.92,0,0,1,1.64-2.85,9.07,9.07,0,0,1,3.25-2.31,9.92,9.92,0,0,1,4-.85,8.6,8.6,0,0,1,6.31,2.53,8.43,8.43,0,0,1,2.56,6.27,7.87,7.87,0,0,1-2.3,5.89q-2.08,2.07-6.32,2.07Z" style="fill:none;stroke:#1d1d1b;stroke-miterlimit:10;stroke-width:1.5px"/><path d="M387.66,164.18v18h-7.34V157.55h9.42a9.6,9.6,0,0,1,6.66,2.13,8,8,0,0,1-.63,12.36L400,182.21h-7.7l-3.56-8v-6.34h.58c1.54,0,2.32-.66,2.32-2,0-1.17-.9-1.76-2.68-1.76Z" style="fill:none;stroke:#1d1d1b;stroke-miterlimit:10;stroke-width:1.5px"/><path d="M414.15,156.94a12.15,12.15,0,0,1,9,3.81A13,13,0,1,1,401,169.87a12.35,12.35,0,0,1,3.82-9.17A12.79,12.79,0,0,1,414.15,156.94Zm-.22,7.26a5.15,5.15,0,0,0-3.85,1.66,5.6,5.6,0,0,0-1.59,4,5.54,5.54,0,0,0,1.6,4,5.28,5.28,0,0,0,7.7,0,5.9,5.9,0,0,0,0-8A5.15,5.15,0,0,0,413.93,164.2Z" style="fill:none;stroke:#1d1d1b;stroke-miterlimit:10;stroke-width:1.5px"/><path d="M437.38,157.55v16.62a9.11,9.11,0,0,1-2.13,6.21,6.85,6.85,0,0,1-5.4,2.45,7.31,7.31,0,0,1-2.24-.42v-7.1a2.46,2.46,0,0,0,1,.24c1,0,1.44-.78,1.44-2.33V157.55Z" style="fill:none;stroke:#1d1d1b;stroke-miterlimit:10;stroke-width:1.5px"/><path d="M454.74,167.15v5.49H450a2.48,2.48,0,0,0-1.38.29,1.1,1.1,0,0,0-.41,1,1.08,1.08,0,0,0,.42,1,3.73,3.73,0,0,0,1.7.25h4.93v7h-5.76c-2.71,0-4.78-.64-6.22-1.94a7.17,7.17,0,0,1-2.15-5.61V165a7.26,7.26,0,0,1,2-5.5,7.91,7.91,0,0,1,5.71-1.95h6.38v7.08h-4.68q-1.89,0-1.89,1.23a1.09,1.09,0,0,0,.45,1,3.32,3.32,0,0,0,1.6.28Z" style="fill:none;stroke:#1d1d1b;stroke-miterlimit:10;stroke-width:1.5px"/><path d="M476.09,170.16l7.68.2q-.75,6-4.12,9.22a12.17,12.17,0,0,1-8.79,3.25,13,13,0,0,1-9.15-22.13,12.7,12.7,0,0,1,9.33-3.76,12.31,12.31,0,0,1,9.1,3.68,14.42,14.42,0,0,1,3.58,7.1l-7.86.53q-1.32-4-5-4.05a5.07,5.07,0,0,0-3.88,1.63,5.78,5.78,0,0,0-1.53,4.13,5.6,5.6,0,0,0,1.5,4,5.5,5.5,0,0,0,7.51.19A6.31,6.31,0,0,0,476.09,170.16Z" style="fill:none;stroke:#1d1d1b;stroke-miterlimit:10;stroke-width:1.5px"/><path d="M498,164.63v17.58h-7.33V164.63H485v-7.08h18.55v7.08Z" style="fill:none;stroke:#1d1d1b;stroke-miterlimit:10;stroke-width:1.5px"/><polyline points="513.08 182.72 513.08 16.38 357.08 16.38" style="fill:none;stroke:#1d1d1b;stroke-miterlimit:10;stroke-width:3px"/><polyline points="10.03 11.87 10.03 180.21 168.08 180.21" style="fill:none;stroke:#1d1d1b;stroke-miterlimit:10;stroke-width:3px"/></svg>