<svg id="Слой_1" data-name="Слой 1" xmlns="http://www.w3.org/2000/svg" viewBox="0 0 523.76 197.41"><defs><style>.cls-1{fill:#d01b17;}.cls-1,.cls-3{stroke:#d01b17;}.cls-1,.cls-2,.cls-3,.cls-4,.cls-5,.cls-6,.cls-7,.cls-8{stroke-miterlimit:10;}.cls-1,.cls-2,.cls-3,.cls-4,.cls-5{stroke-width:0.25px;}.cls-2,.cls-4,.cls-6,.cls-7,.cls-8{stroke:#1d1d1b;}.cls-3,.cls-4,.cls-5,.cls-6,.cls-7,.cls-8{fill:none;}.cls-5{stroke:#e30d13;}.cls-6{font-size:80px;stroke-width:2px;}.cls-6,.cls-7{font-family:Bauhaus93, "Bauhaus 93";}.cls-7{font-size:37px;stroke-width:1.5px;}.cls-8{stroke-width:3px;}</style></defs><path class="cls-1" d="M243.4,16.5a4.62,4.62,0,0,1-1.13,3,22.29,22.29,0,0,1-6.37,4.9,22.91,22.91,0,0,1-7.36,2.44,22.65,22.65,0,0,1,1.84-6.38,21.79,21.79,0,0,1,5.25-7.4,4.6,4.6,0,0,1,3.13-1.23A4.66,4.66,0,0,1,243.4,16.5Z"/><path class="cls-1" d="M243.4,40.08a4.62,4.62,0,0,0-1.13-3,22.29,22.29,0,0,0-6.37-4.9,22.91,22.91,0,0,0-7.36-2.44,22.65,22.65,0,0,0,1.84,6.38,21.79,21.79,0,0,0,5.25,7.4,4.6,4.6,0,0,0,3.13,1.23A4.66,4.66,0,0,0,243.4,40.08Z"/><path class="cls-2" d="M210.48,16.5a4.62,4.62,0,0,0,1.13,3,22.29,22.29,0,0,0,6.37,4.9,22.91,22.91,0,0,0,7.36,2.44,22.65,22.65,0,0,0-1.84-6.38,21.79,21.79,0,0,0-5.25-7.4,4.6,4.6,0,0,0-3.13-1.23A4.66,4.66,0,0,0,210.48,16.5Z"/><path class="cls-2" d="M210.48,40.08a4.62,4.62,0,0,1,1.13-3,22.29,22.29,0,0,1,6.37-4.9,22.91,22.91,0,0,1,7.36-2.44,22.65,22.65,0,0,1-1.84,6.38,21.79,21.79,0,0,1-5.25,7.4,4.6,4.6,0,0,1-3.13,1.23A4.66,4.66,0,0,1,210.48,40.08Z"/><path class="cls-1" d="M278.07,16.5a4.62,4.62,0,0,1-1.13,3,22.29,22.29,0,0,1-6.37,4.9,22.91,22.91,0,0,1-7.36,2.44,22.65,22.65,0,0,1,1.84-6.38,21.79,21.79,0,0,1,5.25-7.4,4.6,4.6,0,0,1,3.13-1.23A4.66,4.66,0,0,1,278.07,16.5Z"/><polygon class="cls-3" points="274.68 28.29 262.41 29.29 261.61 41.11 260.92 29.3 249.04 28.29 260.92 27.34 261.61 15.48 262.42 27.34 274.68 28.29"/><path class="cls-1" d="M278.07,40.08a4.62,4.62,0,0,0-1.13-3,22.29,22.29,0,0,0-6.37-4.9,22.91,22.91,0,0,0-7.36-2.44,22.65,22.65,0,0,0,1.84,6.38,21.79,21.79,0,0,0,5.25,7.4,4.6,4.6,0,0,0,3.13,1.23A4.66,4.66,0,0,0,278.07,40.08Z"/><path class="cls-1" d="M245.15,16.51a4.62,4.62,0,0,0,1.13,3,22.29,22.29,0,0,0,6.37,4.9A22.91,22.91,0,0,0,260,26.88a22.65,22.65,0,0,0-1.84-6.38,21.79,21.79,0,0,0-5.25-7.4,4.6,4.6,0,0,0-3.13-1.23A4.66,4.66,0,0,0,245.15,16.51Z"/><path class="cls-1" d="M245.15,40.09a4.62,4.62,0,0,1,1.13-3,22.29,22.29,0,0,1,6.37-4.9A22.91,22.91,0,0,1,260,29.72a22.65,22.65,0,0,1-1.84,6.38,21.79,21.79,0,0,1-5.25,7.4,4.6,4.6,0,0,1-3.13,1.23A4.66,4.66,0,0,1,245.15,40.09Z"/><path class="cls-2" d="M175.82,16.5a4.62,4.62,0,0,0,1.13,3,22.29,22.29,0,0,0,6.37,4.9,22.91,22.91,0,0,0,7.36,2.44,22.65,22.65,0,0,0-1.84-6.38,21.79,21.79,0,0,0-5.25-7.4,4.6,4.6,0,0,0-3.13-1.23A4.66,4.66,0,0,0,175.82,16.5Z"/><polygon class="cls-4" points="179.21 28.29 191.48 29.29 192.28 41.11 192.97 29.3 204.85 28.29 192.97 27.34 192.28 15.48 191.47 27.34 179.21 28.29"/><path class="cls-2" d="M175.82,40.08a4.62,4.62,0,0,1,1.13-3,22.29,22.29,0,0,1,6.37-4.9,22.91,22.91,0,0,1,7.36-2.44,22.65,22.65,0,0,1-1.84,6.38,21.79,21.79,0,0,1-5.25,7.4,4.6,4.6,0,0,1-3.13,1.23A4.66,4.66,0,0,1,175.82,40.08Z"/><path class="cls-2" d="M208.74,16.51a4.62,4.62,0,0,1-1.13,3,22.29,22.29,0,0,1-6.37,4.9,22.91,22.91,0,0,1-7.36,2.44,22.65,22.65,0,0,1,1.84-6.38A21.79,21.79,0,0,1,201,13.1a4.6,4.6,0,0,1,3.13-1.23A4.66,4.66,0,0,1,208.74,16.51Z"/><path class="cls-2" d="M208.74,40.09a4.62,4.62,0,0,0-1.13-3,22.29,22.29,0,0,0-6.37-4.9,22.91,22.91,0,0,0-7.36-2.44,22.65,22.65,0,0,0,1.84,6.38A21.79,21.79,0,0,0,201,43.5a4.6,4.6,0,0,0,3.13,1.23A4.66,4.66,0,0,0,208.74,40.09Z"/><path class="cls-1" d="M243.4,51a4.62,4.62,0,0,1-1.13,3,22.29,22.29,0,0,1-6.37,4.9,22.91,22.91,0,0,1-7.36,2.44A22.65,22.65,0,0,1,230.38,55a21.79,21.79,0,0,1,5.25-7.4,4.6,4.6,0,0,1,3.13-1.23A4.66,4.66,0,0,1,243.4,51Z"/><path class="cls-1" d="M243.4,74.58a4.62,4.62,0,0,0-1.13-3,22.29,22.29,0,0,0-6.37-4.9,22.91,22.91,0,0,0-7.36-2.44,22.65,22.65,0,0,0,1.84,6.38,21.79,21.79,0,0,0,5.25,7.4,4.6,4.6,0,0,0,3.13,1.23A4.66,4.66,0,0,0,243.4,74.58Z"/><path class="cls-2" d="M210.48,51a4.62,4.62,0,0,0,1.13,3,22.29,22.29,0,0,0,6.37,4.9,22.91,22.91,0,0,0,7.36,2.44A22.65,22.65,0,0,0,223.5,55a21.79,21.79,0,0,0-5.25-7.4,4.6,4.6,0,0,0-3.13-1.23A4.66,4.66,0,0,0,210.48,51Z"/><path class="cls-2" d="M210.48,74.59a4.62,4.62,0,0,1,1.13-3,22.29,22.29,0,0,1,6.37-4.9,22.91,22.91,0,0,1,7.36-2.44,22.65,22.65,0,0,1-1.84,6.38,21.79,21.79,0,0,1-5.25,7.4,4.6,4.6,0,0,1-3.13,1.23A4.66,4.66,0,0,1,210.48,74.59Z"/><path class="cls-1" d="M278.06,51a4.62,4.62,0,0,1-1.13,3,22.29,22.29,0,0,1-6.37,4.9,22.91,22.91,0,0,1-7.36,2.44A22.65,22.65,0,0,1,265,55a21.79,21.79,0,0,1,5.25-7.4,4.6,4.6,0,0,1,3.13-1.23A4.66,4.66,0,0,1,278.06,51Z"/><polygon class="cls-3" points="274.67 62.79 262.4 63.79 261.6 75.61 260.91 63.8 249.03 62.79 260.91 61.84 261.6 49.98 262.41 61.84 274.67 62.79"/><path class="cls-1" d="M278.06,74.58a4.62,4.62,0,0,0-1.13-3,22.29,22.29,0,0,0-6.37-4.9,22.91,22.91,0,0,0-7.36-2.44A22.65,22.65,0,0,0,265,70.59a21.79,21.79,0,0,0,5.25,7.4,4.6,4.6,0,0,0,3.13,1.23A4.66,4.66,0,0,0,278.06,74.58Z"/><path class="cls-1" d="M245.14,51a4.62,4.62,0,0,0,1.13,3,22.29,22.29,0,0,0,6.37,4.9A22.91,22.91,0,0,0,260,61.38,22.65,22.65,0,0,0,258.16,55a21.79,21.79,0,0,0-5.25-7.4,4.6,4.6,0,0,0-3.13-1.23A4.66,4.66,0,0,0,245.14,51Z"/><path class="cls-1" d="M245.14,74.59a4.62,4.62,0,0,1,1.13-3,22.29,22.29,0,0,1,6.37-4.9A22.91,22.91,0,0,1,260,64.22a22.65,22.65,0,0,1-1.84,6.38,21.79,21.79,0,0,1-5.25,7.4,4.6,4.6,0,0,1-3.13,1.23A4.66,4.66,0,0,1,245.14,74.59Z"/><path class="cls-2" d="M175.81,51a4.62,4.62,0,0,0,1.13,3,22.29,22.29,0,0,0,6.37,4.9,22.91,22.91,0,0,0,7.36,2.44A22.65,22.65,0,0,0,188.83,55a21.79,21.79,0,0,0-5.25-7.4,4.6,4.6,0,0,0-3.13-1.23A4.66,4.66,0,0,0,175.81,51Z"/><polygon class="cls-4" points="179.2 62.79 191.47 63.79 192.27 75.61 192.96 63.8 204.84 62.79 192.96 61.84 192.27 49.98 191.46 61.84 179.2 62.79"/><path class="cls-2" d="M175.81,74.58a4.62,4.62,0,0,1,1.13-3,22.29,22.29,0,0,1,6.37-4.9,22.91,22.91,0,0,1,7.36-2.44,22.65,22.65,0,0,1-1.84,6.38,21.79,21.79,0,0,1-5.25,7.4,4.6,4.6,0,0,1-3.13,1.23A4.66,4.66,0,0,1,175.81,74.58Z"/><path class="cls-2" d="M208.73,51a4.62,4.62,0,0,1-1.13,3,22.29,22.29,0,0,1-6.37,4.9,22.91,22.91,0,0,1-7.36,2.44A22.65,22.65,0,0,1,195.71,55,21.79,21.79,0,0,1,201,47.6a4.6,4.6,0,0,1,3.13-1.23A4.66,4.66,0,0,1,208.73,51Z"/><path class="cls-2" d="M208.73,74.59a4.62,4.62,0,0,0-1.13-3,22.29,22.29,0,0,0-6.37-4.9,22.91,22.91,0,0,0-7.36-2.44,22.65,22.65,0,0,0,1.84,6.38A21.79,21.79,0,0,0,201,78a4.6,4.6,0,0,0,3.13,1.23A4.66,4.66,0,0,0,208.73,74.59Z"/><path class="cls-2" d="M347.41,16.5a4.62,4.62,0,0,1-1.13,3,22.29,22.29,0,0,1-6.37,4.9,22.91,22.91,0,0,1-7.36,2.44,22.65,22.65,0,0,1,1.84-6.38,21.79,21.79,0,0,1,5.25-7.4,4.6,4.6,0,0,1,3.13-1.23A4.66,4.66,0,0,1,347.41,16.5Z"/><polygon class="cls-4" points="344.02 28.29 331.75 29.29 330.95 41.11 330.26 29.3 318.38 28.29 330.26 27.34 330.95 15.48 331.76 27.34 344.02 28.29"/><path class="cls-2" d="M347.41,40.08a4.62,4.62,0,0,0-1.13-3,22.29,22.29,0,0,0-6.37-4.9,22.91,22.91,0,0,0-7.36-2.44,22.65,22.65,0,0,0,1.84,6.38,21.79,21.79,0,0,0,5.25,7.4,4.6,4.6,0,0,0,3.13,1.23A4.66,4.66,0,0,0,347.41,40.08Z"/><path class="cls-2" d="M314.49,16.51a4.62,4.62,0,0,0,1.13,3,22.29,22.29,0,0,0,6.37,4.9,22.91,22.91,0,0,0,7.36,2.44,22.65,22.65,0,0,0-1.84-6.38,21.79,21.79,0,0,0-5.25-7.4,4.6,4.6,0,0,0-3.13-1.23A4.66,4.66,0,0,0,314.49,16.51Z"/><path class="cls-2" d="M314.49,40.09a4.62,4.62,0,0,1,1.13-3,22.29,22.29,0,0,1,6.37-4.9,22.91,22.91,0,0,1,7.36-2.44,22.65,22.65,0,0,1-1.84,6.38,21.79,21.79,0,0,1-5.25,7.4,4.6,4.6,0,0,1-3.13,1.23A4.66,4.66,0,0,1,314.49,40.09Z"/><path class="cls-2" d="M347.4,51a4.62,4.62,0,0,1-1.13,3,22.29,22.29,0,0,1-6.37,4.9,22.91,22.91,0,0,1-7.36,2.44A22.65,22.65,0,0,1,334.38,55a21.79,21.79,0,0,1,5.25-7.4,4.6,4.6,0,0,1,3.13-1.23A4.66,4.66,0,0,1,347.4,51Z"/><polygon class="cls-4" points="344.01 62.79 331.74 63.79 330.94 75.61 330.25 63.8 318.37 62.79 330.25 61.84 330.94 49.98 331.75 61.84 344.01 62.79"/><path class="cls-2" d="M347.4,74.58a4.62,4.62,0,0,0-1.13-3,22.29,22.29,0,0,0-6.37-4.9,22.91,22.91,0,0,0-7.36-2.44,22.65,22.65,0,0,0,1.84,6.38,21.79,21.79,0,0,0,5.25,7.4,4.6,4.6,0,0,0,3.13,1.23A4.66,4.66,0,0,0,347.4,74.58Z"/><path class="cls-2" d="M314.48,51a4.62,4.62,0,0,0,1.13,3,22.29,22.29,0,0,0,6.37,4.9,22.91,22.91,0,0,0,7.36,2.44A22.65,22.65,0,0,0,327.5,55a21.79,21.79,0,0,0-5.25-7.4,4.6,4.6,0,0,0-3.13-1.23A4.66,4.66,0,0,0,314.48,51Z"/><path class="cls-2" d="M314.48,74.59a4.62,4.62,0,0,1,1.13-3,22.29,22.29,0,0,1,6.37-4.9,22.91,22.91,0,0,1,7.36-2.44,22.65,22.65,0,0,1-1.84,6.38,21.79,21.79,0,0,1-5.25,7.4,4.6,4.6,0,0,1-3.13,1.23A4.66,4.66,0,0,1,314.48,74.59Z"/><path class="cls-1" d="M243.4,109.09a4.62,4.62,0,0,0-1.13-3,22.29,22.29,0,0,0-6.37-4.9,22.91,22.91,0,0,0-7.36-2.44,22.65,22.65,0,0,0,1.84,6.38,21.79,21.79,0,0,0,5.25,7.4,4.6,4.6,0,0,0,3.13,1.23A4.66,4.66,0,0,0,243.4,109.09Z"/><path class="cls-1" d="M243.4,85.51a4.62,4.62,0,0,1-1.13,3,22.29,22.29,0,0,1-6.37,4.9,22.91,22.91,0,0,1-7.36,2.44,22.65,22.65,0,0,1,1.84-6.38,21.79,21.79,0,0,1,5.25-7.4,4.6,4.6,0,0,1,3.13-1.23A4.66,4.66,0,0,1,243.4,85.51Z"/><path class="cls-2" d="M210.48,109.08a4.62,4.62,0,0,1,1.13-3,22.29,22.29,0,0,1,6.37-4.9,22.91,22.91,0,0,1,7.36-2.44,22.65,22.65,0,0,1-1.84,6.38,21.79,21.79,0,0,1-5.25,7.4,4.6,4.6,0,0,1-3.13,1.23A4.66,4.66,0,0,1,210.48,109.08Z"/><path class="cls-2" d="M210.48,85.5a4.62,4.62,0,0,0,1.13,3,22.29,22.29,0,0,0,6.37,4.9,22.91,22.91,0,0,0,7.36,2.44,22.65,22.65,0,0,0-1.84-6.38,21.79,21.79,0,0,0-5.25-7.4,4.6,4.6,0,0,0-3.13-1.23A4.66,4.66,0,0,0,210.48,85.5Z"/><path class="cls-1" d="M278.07,109.09a4.62,4.62,0,0,0-1.13-3,22.29,22.29,0,0,0-6.37-4.9,22.91,22.91,0,0,0-7.36-2.44,22.65,22.65,0,0,0,1.84,6.38,21.79,21.79,0,0,0,5.25,7.4,4.6,4.6,0,0,0,3.13,1.23A4.66,4.66,0,0,0,278.07,109.09Z"/><polygon class="cls-3" points="274.68 97.3 262.41 96.3 261.61 84.47 260.92 96.28 249.04 97.3 260.92 98.25 261.61 110.11 262.42 98.25 274.68 97.3"/><path class="cls-1" d="M278.07,85.51a4.62,4.62,0,0,1-1.13,3,22.29,22.29,0,0,1-6.37,4.9,22.91,22.91,0,0,1-7.36,2.44,22.65,22.65,0,0,1,1.84-6.38,21.79,21.79,0,0,1,5.25-7.4,4.6,4.6,0,0,1,3.13-1.23A4.66,4.66,0,0,1,278.07,85.51Z"/><path class="cls-1" d="M245.15,109.08a4.62,4.62,0,0,1,1.13-3,22.29,22.29,0,0,1,6.37-4.9A22.91,22.91,0,0,1,260,98.71a22.65,22.65,0,0,1-1.84,6.38,21.79,21.79,0,0,1-5.25,7.4,4.6,4.6,0,0,1-3.13,1.23A4.66,4.66,0,0,1,245.15,109.08Z"/><path class="cls-1" d="M245.15,85.5a4.62,4.62,0,0,0,1.13,3,22.29,22.29,0,0,0,6.37,4.9A22.91,22.91,0,0,0,260,95.87a22.65,22.65,0,0,0-1.84-6.38,21.79,21.79,0,0,0-5.25-7.4,4.6,4.6,0,0,0-3.13-1.23A4.66,4.66,0,0,0,245.15,85.5Z"/><path class="cls-2" d="M175.82,109.09a4.62,4.62,0,0,1,1.13-3,22.29,22.29,0,0,1,6.37-4.9,22.91,22.91,0,0,1,7.36-2.44,22.65,22.65,0,0,1-1.84,6.38,21.79,21.79,0,0,1-5.25,7.4,4.6,4.6,0,0,1-3.13,1.23A4.66,4.66,0,0,1,175.82,109.09Z"/><polygon class="cls-4" points="179.21 97.3 191.48 96.3 192.28 84.47 192.97 96.28 204.85 97.3 192.97 98.25 192.28 110.11 191.47 98.25 179.21 97.3"/><path class="cls-2" d="M175.82,85.51a4.62,4.62,0,0,0,1.13,3,22.29,22.29,0,0,0,6.37,4.9,22.91,22.91,0,0,0,7.36,2.44,22.65,22.65,0,0,0-1.84-6.38,21.79,21.79,0,0,0-5.25-7.4,4.6,4.6,0,0,0-3.13-1.23A4.66,4.66,0,0,0,175.82,85.51Z"/><path class="cls-2" d="M208.74,109.08a4.62,4.62,0,0,0-1.13-3,22.29,22.29,0,0,0-6.37-4.9,22.91,22.91,0,0,0-7.36-2.44,22.65,22.65,0,0,0,1.84,6.38,21.79,21.79,0,0,0,5.25,7.4,4.6,4.6,0,0,0,3.13,1.23A4.66,4.66,0,0,0,208.74,109.08Z"/><path class="cls-2" d="M208.74,85.5a4.62,4.62,0,0,1-1.13,3,22.29,22.29,0,0,1-6.37,4.9,22.91,22.91,0,0,1-7.36,2.44,22.65,22.65,0,0,1,1.84-6.38,21.79,21.79,0,0,1,5.25-7.4,4.6,4.6,0,0,1,3.13-1.23A4.66,4.66,0,0,1,208.74,85.5Z"/><path class="cls-2" d="M347.41,109.09a4.62,4.62,0,0,0-1.13-3,22.29,22.29,0,0,0-6.37-4.9,22.91,22.91,0,0,0-7.36-2.44,22.65,22.65,0,0,0,1.84,6.38,21.79,21.79,0,0,0,5.25,7.4,4.6,4.6,0,0,0,3.13,1.23A4.66,4.66,0,0,0,347.41,109.09Z"/><polygon class="cls-4" points="344.02 97.3 331.75 96.3 330.95 84.47 330.26 96.28 318.38 97.3 330.26 98.25 330.95 110.11 331.76 98.25 344.02 97.3"/><path class="cls-2" d="M347.41,85.51a4.62,4.62,0,0,1-1.13,3,22.29,22.29,0,0,1-6.37,4.9,22.91,22.91,0,0,1-7.36,2.44,22.65,22.65,0,0,1,1.84-6.38,21.79,21.79,0,0,1,5.25-7.4,4.6,4.6,0,0,1,3.13-1.23A4.66,4.66,0,0,1,347.41,85.51Z"/><path class="cls-2" d="M314.49,109.08a4.62,4.62,0,0,1,1.13-3,22.29,22.29,0,0,1,6.37-4.9,22.91,22.91,0,0,1,7.36-2.44,22.65,22.65,0,0,1-1.84,6.38,21.79,21.79,0,0,1-5.25,7.4,4.6,4.6,0,0,1-3.13,1.23A4.66,4.66,0,0,1,314.49,109.08Z"/><path class="cls-2" d="M314.49,85.5a4.62,4.62,0,0,0,1.13,3,22.29,22.29,0,0,0,6.37,4.9,22.91,22.91,0,0,0,7.36,2.44,22.65,22.65,0,0,0-1.84-6.38,21.79,21.79,0,0,0-5.25-7.4,4.6,4.6,0,0,0-3.13-1.23A4.66,4.66,0,0,0,314.49,85.5Z"/><path class="cls-2" d="M243.4,178.09a4.62,4.62,0,0,0-1.13-3,22.29,22.29,0,0,0-6.37-4.9,22.91,22.91,0,0,0-7.36-2.44,22.65,22.65,0,0,0,1.84,6.38,21.79,21.79,0,0,0,5.25,7.4,4.6,4.6,0,0,0,3.13,1.23A4.66,4.66,0,0,0,243.4,178.09Z"/><polygon class="cls-4" points="240.01 166.3 227.74 165.3 226.94 153.48 226.25 165.29 214.37 166.3 226.25 167.25 226.94 179.11 227.75 167.25 240.01 166.3"/><path class="cls-2" d="M243.4,154.51a4.62,4.62,0,0,1-1.13,3,22.29,22.29,0,0,1-6.37,4.9,22.91,22.91,0,0,1-7.36,2.44,22.65,22.65,0,0,1,1.84-6.38,21.79,21.79,0,0,1,5.25-7.4,4.6,4.6,0,0,1,3.13-1.23A4.66,4.66,0,0,1,243.4,154.51Z"/><path class="cls-2" d="M210.48,178.09a4.62,4.62,0,0,1,1.13-3,22.29,22.29,0,0,1,6.37-4.9,22.91,22.91,0,0,1,7.36-2.44,22.65,22.65,0,0,1-1.84,6.38,21.79,21.79,0,0,1-5.25,7.4,4.6,4.6,0,0,1-3.13,1.23A4.66,4.66,0,0,1,210.48,178.09Z"/><path class="cls-2" d="M210.48,154.51a4.62,4.62,0,0,0,1.13,3,22.29,22.29,0,0,0,6.37,4.9,22.91,22.91,0,0,0,7.36,2.44,22.65,22.65,0,0,0-1.84-6.38,21.79,21.79,0,0,0-5.25-7.4,4.6,4.6,0,0,0-3.13-1.23A4.66,4.66,0,0,0,210.48,154.51Z"/><path class="cls-2" d="M278.07,178.09a4.62,4.62,0,0,0-1.13-3,22.29,22.29,0,0,0-6.37-4.9,22.91,22.91,0,0,0-7.36-2.44,22.65,22.65,0,0,0,1.84,6.38,21.79,21.79,0,0,0,5.25,7.4,4.6,4.6,0,0,0,3.13,1.23A4.66,4.66,0,0,0,278.07,178.09Z"/><polygon class="cls-4" points="274.68 166.3 262.41 165.3 261.61 153.48 260.92 165.29 249.04 166.3 260.92 167.25 261.61 179.11 262.42 167.25 274.68 166.3"/><path class="cls-2" d="M278.07,154.51a4.62,4.62,0,0,1-1.13,3,22.29,22.29,0,0,1-6.37,4.9,22.91,22.91,0,0,1-7.36,2.44,22.65,22.65,0,0,1,1.84-6.38,21.79,21.79,0,0,1,5.25-7.4,4.6,4.6,0,0,1,3.13-1.23A4.66,4.66,0,0,1,278.07,154.51Z"/><path class="cls-2" d="M245.15,178.08a4.62,4.62,0,0,1,1.13-3,22.29,22.29,0,0,1,6.37-4.9,22.91,22.91,0,0,1,7.36-2.44,22.65,22.65,0,0,1-1.84,6.38,21.79,21.79,0,0,1-5.25,7.4,4.6,4.6,0,0,1-3.13,1.23A4.66,4.66,0,0,1,245.15,178.08Z"/><path class="cls-2" d="M245.15,154.5a4.62,4.62,0,0,0,1.13,3,22.29,22.29,0,0,0,6.37,4.9,22.91,22.91,0,0,0,7.36,2.44,22.65,22.65,0,0,0-1.84-6.38,21.79,21.79,0,0,0-5.25-7.4,4.6,4.6,0,0,0-3.13-1.23A4.66,4.66,0,0,0,245.15,154.5Z"/><path class="cls-2" d="M175.82,178.09a4.62,4.62,0,0,1,1.13-3,22.29,22.29,0,0,1,6.37-4.9,22.91,22.91,0,0,1,7.36-2.44,22.65,22.65,0,0,1-1.84,6.38,21.79,21.79,0,0,1-5.25,7.4,4.6,4.6,0,0,1-3.13,1.23A4.66,4.66,0,0,1,175.82,178.09Z"/><polygon class="cls-4" points="179.21 166.3 191.48 165.3 192.28 153.48 192.97 165.29 204.85 166.3 192.97 167.25 192.28 179.11 191.47 167.25 179.21 166.3"/><path class="cls-2" d="M175.82,154.51a4.62,4.62,0,0,0,1.13,3,22.29,22.29,0,0,0,6.37,4.9,22.91,22.91,0,0,0,7.36,2.44,22.65,22.65,0,0,0-1.84-6.38,21.79,21.79,0,0,0-5.25-7.4,4.6,4.6,0,0,0-3.13-1.23A4.66,4.66,0,0,0,175.82,154.51Z"/><path class="cls-2" d="M208.74,178.08a4.62,4.62,0,0,0-1.13-3,22.29,22.29,0,0,0-6.37-4.9,22.91,22.91,0,0,0-7.36-2.44,22.65,22.65,0,0,0,1.84,6.38,21.79,21.79,0,0,0,5.25,7.4,4.6,4.6,0,0,0,3.13,1.23A4.66,4.66,0,0,0,208.74,178.08Z"/><path class="cls-2" d="M208.74,154.5a4.62,4.62,0,0,1-1.13,3,22.29,22.29,0,0,1-6.37,4.9,22.91,22.91,0,0,1-7.36,2.44,22.65,22.65,0,0,1,1.84-6.38,21.79,21.79,0,0,1,5.25-7.4,4.6,4.6,0,0,1,3.13-1.23A4.66,4.66,0,0,1,208.74,154.5Z"/><path class="cls-1" d="M243.4,143.59a4.62,4.62,0,0,0-1.13-3,22.29,22.29,0,0,0-6.37-4.9,22.91,22.91,0,0,0-7.36-2.44,22.65,22.65,0,0,0,1.84,6.38,21.79,21.79,0,0,0,5.25,7.4,4.6,4.6,0,0,0,3.13,1.23A4.66,4.66,0,0,0,243.4,143.59Z"/><path class="cls-1" d="M243.4,120a4.62,4.62,0,0,1-1.13,3,22.29,22.29,0,0,1-6.37,4.9,22.91,22.91,0,0,1-7.36,2.44,22.65,22.65,0,0,1,1.84-6.38,21.79,21.79,0,0,1,5.25-7.4,4.6,4.6,0,0,1,3.13-1.23A4.66,4.66,0,0,1,243.4,120Z"/><path class="cls-2" d="M210.48,143.58a4.62,4.62,0,0,1,1.13-3,22.29,22.29,0,0,1,6.37-4.9,22.91,22.91,0,0,1,7.36-2.44,22.65,22.65,0,0,1-1.84,6.38,21.79,21.79,0,0,1-5.25,7.4,4.6,4.6,0,0,1-3.13,1.23A4.66,4.66,0,0,1,210.48,143.58Z"/><path class="cls-2" d="M210.48,120a4.62,4.62,0,0,0,1.13,3,22.29,22.29,0,0,0,6.37,4.9,22.91,22.91,0,0,0,7.36,2.44A22.65,22.65,0,0,0,223.5,124a21.79,21.79,0,0,0-5.25-7.4,4.6,4.6,0,0,0-3.13-1.23A4.66,4.66,0,0,0,210.48,120Z"/><path class="cls-1" d="M278.06,143.59a4.62,4.62,0,0,0-1.13-3,22.29,22.29,0,0,0-6.37-4.9,22.91,22.91,0,0,0-7.36-2.44A22.65,22.65,0,0,0,265,139.6a21.79,21.79,0,0,0,5.25,7.4,4.6,4.6,0,0,0,3.13,1.23A4.66,4.66,0,0,0,278.06,143.59Z"/><polygon class="cls-3" points="274.67 131.8 262.4 130.8 261.6 118.98 260.91 130.79 249.03 131.8 260.91 132.75 261.6 144.61 262.41 132.75 274.67 131.8"/><path class="cls-1" d="M278.06,120a4.62,4.62,0,0,1-1.13,3,22.29,22.29,0,0,1-6.37,4.9,22.91,22.91,0,0,1-7.36,2.44A22.65,22.65,0,0,1,265,124a21.79,21.79,0,0,1,5.25-7.4,4.6,4.6,0,0,1,3.13-1.23A4.66,4.66,0,0,1,278.06,120Z"/><path class="cls-1" d="M245.14,143.58a4.62,4.62,0,0,1,1.13-3,22.29,22.29,0,0,1,6.37-4.9,22.91,22.91,0,0,1,7.36-2.44,22.65,22.65,0,0,1-1.84,6.38,21.79,21.79,0,0,1-5.25,7.4,4.6,4.6,0,0,1-3.13,1.23A4.66,4.66,0,0,1,245.14,143.58Z"/><path class="cls-1" d="M245.14,120a4.62,4.62,0,0,0,1.13,3,22.29,22.29,0,0,0,6.37,4.9,22.91,22.91,0,0,0,7.36,2.44,22.65,22.65,0,0,0-1.84-6.38,21.79,21.79,0,0,0-5.25-7.4,4.6,4.6,0,0,0-3.13-1.23A4.66,4.66,0,0,0,245.14,120Z"/><path class="cls-2" d="M175.81,143.59a4.62,4.62,0,0,1,1.13-3,22.29,22.29,0,0,1,6.37-4.9,22.91,22.91,0,0,1,7.36-2.44,22.65,22.65,0,0,1-1.84,6.38,21.79,21.79,0,0,1-5.25,7.4,4.6,4.6,0,0,1-3.13,1.23A4.66,4.66,0,0,1,175.81,143.59Z"/><polygon class="cls-4" points="179.2 131.8 191.47 130.8 192.27 118.98 192.96 130.79 204.84 131.8 192.96 132.75 192.27 144.61 191.46 132.75 179.2 131.8"/><path class="cls-2" d="M175.81,120a4.62,4.62,0,0,0,1.13,3,22.29,22.29,0,0,0,6.37,4.9,22.91,22.91,0,0,0,7.36,2.44,22.65,22.65,0,0,0-1.84-6.38,21.79,21.79,0,0,0-5.25-7.4,4.6,4.6,0,0,0-3.13-1.23A4.66,4.66,0,0,0,175.81,120Z"/><path class="cls-2" d="M208.73,143.58a4.62,4.62,0,0,0-1.13-3,22.29,22.29,0,0,0-6.37-4.9,22.91,22.91,0,0,0-7.36-2.44,22.65,22.65,0,0,0,1.84,6.38A21.79,21.79,0,0,0,201,147a4.6,4.6,0,0,0,3.13,1.23A4.66,4.66,0,0,0,208.73,143.58Z"/><path class="cls-2" d="M208.73,120a4.62,4.62,0,0,1-1.13,3,22.29,22.29,0,0,1-6.37,4.9,22.91,22.91,0,0,1-7.36,2.44,22.65,22.65,0,0,1,1.84-6.38,21.79,21.79,0,0,1,5.25-7.4,4.6,4.6,0,0,1,3.13-1.23A4.66,4.66,0,0,1,208.73,120Z"/><path class="cls-2" d="M279.82,178.09a4.62,4.62,0,0,1,1.13-3,22.29,22.29,0,0,1,6.37-4.9,22.91,22.91,0,0,1,7.36-2.44,22.65,22.65,0,0,1-1.84,6.38,21.79,21.79,0,0,1-5.25,7.4,4.6,4.6,0,0,1-3.13,1.23A4.66,4.66,0,0,1,279.82,178.09Z"/><polygon class="cls-4" points="283.21 166.3 295.48 165.3 296.28 153.48 296.97 165.29 308.85 166.3 296.97 167.25 296.28 179.11 295.47 167.25 283.21 166.3"/><path class="cls-2" d="M279.82,154.51a4.62,4.62,0,0,0,1.13,3,22.29,22.29,0,0,0,6.37,4.9,22.91,22.91,0,0,0,7.36,2.44,22.65,22.65,0,0,0-1.84-6.38,21.79,21.79,0,0,0-5.25-7.4,4.6,4.6,0,0,0-3.13-1.23A4.66,4.66,0,0,0,279.82,154.51Z"/><path class="cls-2" d="M312.74,178.09a4.62,4.62,0,0,0-1.13-3,22.29,22.29,0,0,0-6.37-4.9,22.91,22.91,0,0,0-7.36-2.44,22.65,22.65,0,0,0,1.84,6.38,21.79,21.79,0,0,0,5.25,7.4,4.6,4.6,0,0,0,3.13,1.23A4.66,4.66,0,0,0,312.74,178.09Z"/><path class="cls-2" d="M312.74,154.51a4.62,4.62,0,0,1-1.13,3,22.29,22.29,0,0,1-6.37,4.9,22.91,22.91,0,0,1-7.36,2.44,22.65,22.65,0,0,1,1.84-6.38,21.79,21.79,0,0,1,5.25-7.4,4.6,4.6,0,0,1,3.13-1.23A4.66,4.66,0,0,1,312.74,154.51Z"/><path class="cls-2" d="M347.41,178.09a4.62,4.62,0,0,0-1.13-3,22.29,22.29,0,0,0-6.37-4.9,22.91,22.91,0,0,0-7.36-2.44,22.65,22.65,0,0,0,1.84,6.38,21.79,21.79,0,0,0,5.25,7.4,4.6,4.6,0,0,0,3.13,1.23A4.66,4.66,0,0,0,347.41,178.09Z"/><polygon class="cls-4" points="344.02 166.3 331.75 165.3 330.95 153.48 330.26 165.29 318.38 166.3 330.26 167.25 330.95 179.11 331.76 167.25 344.02 166.3"/><path class="cls-2" d="M347.41,154.51a4.62,4.62,0,0,1-1.13,3,22.29,22.29,0,0,1-6.37,4.9,22.91,22.91,0,0,1-7.36,2.44,22.65,22.65,0,0,1,1.84-6.38,21.79,21.79,0,0,1,5.25-7.4,4.6,4.6,0,0,1,3.13-1.23A4.66,4.66,0,0,1,347.41,154.51Z"/><path class="cls-2" d="M314.49,178.08a4.62,4.62,0,0,1,1.13-3,22.29,22.29,0,0,1,6.37-4.9,22.91,22.91,0,0,1,7.36-2.44,22.65,22.65,0,0,1-1.84,6.38,21.79,21.79,0,0,1-5.25,7.4,4.6,4.6,0,0,1-3.13,1.23A4.66,4.66,0,0,1,314.49,178.08Z"/><path class="cls-2" d="M314.49,154.5a4.62,4.62,0,0,0,1.13,3,22.29,22.29,0,0,0,6.37,4.9,22.91,22.91,0,0,0,7.36,2.44,22.65,22.65,0,0,0-1.84-6.38,21.79,21.79,0,0,0-5.25-7.4,4.6,4.6,0,0,0-3.13-1.23A4.66,4.66,0,0,0,314.49,154.5Z"/><path class="cls-2" d="M347.4,143.59a4.62,4.62,0,0,0-1.13-3,22.29,22.29,0,0,0-6.37-4.9,22.91,22.91,0,0,0-7.36-2.44,22.65,22.65,0,0,0,1.84,6.38,21.79,21.79,0,0,0,5.25,7.4,4.6,4.6,0,0,0,3.13,1.23A4.66,4.66,0,0,0,347.4,143.59Z"/><polygon class="cls-4" points="344.01 131.8 331.74 130.8 330.94 118.98 330.25 130.79 318.37 131.8 330.25 132.75 330.94 144.61 331.75 132.75 344.01 131.8"/><path class="cls-2" d="M347.4,120a4.62,4.62,0,0,1-1.13,3,22.29,22.29,0,0,1-6.37,4.9,22.91,22.91,0,0,1-7.36,2.44,22.65,22.65,0,0,1,1.84-6.38,21.79,21.79,0,0,1,5.25-7.4,4.6,4.6,0,0,1,3.13-1.23A4.66,4.66,0,0,1,347.4,120Z"/><path class="cls-2" d="M314.48,143.58a4.62,4.62,0,0,1,1.13-3,22.29,22.29,0,0,1,6.37-4.9,22.91,22.91,0,0,1,7.36-2.44,22.65,22.65,0,0,1-1.84,6.38,21.79,21.79,0,0,1-5.25,7.4,4.6,4.6,0,0,1-3.13,1.23A4.66,4.66,0,0,1,314.48,143.58Z"/><path class="cls-2" d="M314.48,120a4.62,4.62,0,0,0,1.13,3,22.29,22.29,0,0,0,6.37,4.9,22.91,22.91,0,0,0,7.36,2.44A22.65,22.65,0,0,0,327.5,124a21.79,21.79,0,0,0-5.25-7.4,4.6,4.6,0,0,0-3.13-1.23A4.66,4.66,0,0,0,314.48,120Z"/><line class="cls-5" x1="226.94" y1="118.98" x2="227.74" y2="130.8"/><line class="cls-5" x1="240.01" y1="131.8" x2="227.74" y2="130.8"/><line class="cls-5" x1="227.75" y1="132.75" x2="240.01" y2="131.8"/><line class="cls-5" x1="226.94" y1="144.61" x2="227.75" y2="132.75"/><line class="cls-4" x1="226.94" y1="118.98" x2="226.25" y2="130.79"/><line class="cls-4" x1="214.37" y1="131.8" x2="226.25" y2="130.79"/><line class="cls-4" x1="226.25" y1="132.75" x2="214.37" y2="131.8"/><line class="cls-4" x1="226.94" y1="144.61" x2="226.25" y2="132.75"/><line class="cls-5" x1="226.94" y1="84.48" x2="227.74" y2="96.3"/><line class="cls-5" x1="240.01" y1="97.3" x2="227.74" y2="96.3"/><line class="cls-5" x1="227.75" y1="98.25" x2="240.01" y2="97.3"/><line class="cls-5" x1="226.94" y1="110.11" x2="227.75" y2="98.25"/><line class="cls-4" x1="226.94" y1="84.48" x2="226.25" y2="96.29"/><line class="cls-4" x1="214.37" y1="97.3" x2="226.25" y2="96.29"/><line class="cls-4" x1="226.25" y1="98.25" x2="214.37" y2="97.3"/><line class="cls-4" x1="226.94" y1="110.11" x2="226.25" y2="98.25"/><line class="cls-5" x1="226.94" y1="49.98" x2="227.74" y2="61.8"/><line class="cls-5" x1="240.01" y1="62.8" x2="227.74" y2="61.8"/><line class="cls-5" x1="227.75" y1="63.75" x2="240.01" y2="62.8"/><line class="cls-5" x1="226.94" y1="75.61" x2="227.75" y2="63.75"/><line class="cls-4" x1="226.94" y1="49.98" x2="226.25" y2="61.79"/><line class="cls-4" x1="214.37" y1="62.8" x2="226.25" y2="61.79"/><line class="cls-4" x1="226.25" y1="63.75" x2="214.37" y2="62.8"/><line class="cls-4" x1="226.94" y1="75.61" x2="226.25" y2="63.75"/><line class="cls-5" x1="226.94" y1="15.48" x2="227.74" y2="27.3"/><line class="cls-5" x1="240.01" y1="28.3" x2="227.74" y2="27.3"/><line class="cls-5" x1="227.75" y1="29.25" x2="240.01" y2="28.3"/><line class="cls-5" x1="226.94" y1="41.11" x2="227.75" y2="29.25"/><line class="cls-4" x1="226.94" y1="15.48" x2="226.25" y2="27.29"/><line class="cls-4" x1="214.37" y1="28.3" x2="226.25" y2="27.29"/><line class="cls-4" x1="226.25" y1="29.25" x2="214.37" y2="28.3"/><line class="cls-4" x1="226.94" y1="41.11" x2="226.25" y2="29.25"/><path class="cls-1" d="M279.8,16.5a4.62,4.62,0,0,0,1.13,3,22.29,22.29,0,0,0,6.37,4.9,22.91,22.91,0,0,0,7.36,2.44,22.65,22.65,0,0,0-1.84-6.38,21.79,21.79,0,0,0-5.25-7.4,4.6,4.6,0,0,0-3.13-1.23A4.66,4.66,0,0,0,279.8,16.5Z"/><path class="cls-1" d="M279.8,40.08a4.62,4.62,0,0,1,1.13-3,22.29,22.29,0,0,1,6.37-4.9,22.91,22.91,0,0,1,7.36-2.44,22.65,22.65,0,0,1-1.84,6.38,21.79,21.79,0,0,1-5.25,7.4,4.6,4.6,0,0,1-3.13,1.23A4.66,4.66,0,0,1,279.8,40.08Z"/><path class="cls-2" d="M312.72,16.5a4.62,4.62,0,0,1-1.13,3,22.29,22.29,0,0,1-6.37,4.9,22.91,22.91,0,0,1-7.36,2.44,22.65,22.65,0,0,1,1.84-6.38,21.79,21.79,0,0,1,5.25-7.4,4.6,4.6,0,0,1,3.13-1.23A4.66,4.66,0,0,1,312.72,16.5Z"/><path class="cls-2" d="M312.72,40.08a4.62,4.62,0,0,0-1.13-3,22.29,22.29,0,0,0-6.37-4.9,22.91,22.91,0,0,0-7.36-2.44,22.65,22.65,0,0,0,1.84,6.38,21.79,21.79,0,0,0,5.25,7.4,4.6,4.6,0,0,0,3.13,1.23A4.66,4.66,0,0,0,312.72,40.08Z"/><path class="cls-1" d="M279.81,51a4.62,4.62,0,0,0,1.13,3,22.29,22.29,0,0,0,6.37,4.9,22.91,22.91,0,0,0,7.36,2.44A22.65,22.65,0,0,0,292.83,55a21.79,21.79,0,0,0-5.25-7.4,4.6,4.6,0,0,0-3.13-1.23A4.66,4.66,0,0,0,279.81,51Z"/><path class="cls-1" d="M279.81,74.58a4.62,4.62,0,0,1,1.13-3,22.29,22.29,0,0,1,6.37-4.9,22.91,22.91,0,0,1,7.36-2.44,22.65,22.65,0,0,1-1.84,6.38,21.79,21.79,0,0,1-5.25,7.4,4.6,4.6,0,0,1-3.13,1.23A4.66,4.66,0,0,1,279.81,74.58Z"/><path class="cls-2" d="M312.73,51a4.62,4.62,0,0,1-1.13,3,22.29,22.29,0,0,1-6.37,4.9,22.91,22.91,0,0,1-7.36,2.44A22.65,22.65,0,0,1,299.71,55,21.79,21.79,0,0,1,305,47.6a4.6,4.6,0,0,1,3.13-1.23A4.66,4.66,0,0,1,312.73,51Z"/><path class="cls-2" d="M312.73,74.59a4.62,4.62,0,0,0-1.13-3,22.29,22.29,0,0,0-6.37-4.9,22.91,22.91,0,0,0-7.36-2.44,22.65,22.65,0,0,0,1.84,6.38A21.79,21.79,0,0,0,305,78a4.6,4.6,0,0,0,3.13,1.23A4.66,4.66,0,0,0,312.73,74.59Z"/><path class="cls-1" d="M279.8,109.09a4.62,4.62,0,0,1,1.13-3,22.29,22.29,0,0,1,6.37-4.9,22.91,22.91,0,0,1,7.36-2.44,22.65,22.65,0,0,1-1.84,6.38,21.79,21.79,0,0,1-5.25,7.4,4.6,4.6,0,0,1-3.13,1.23A4.66,4.66,0,0,1,279.8,109.09Z"/><path class="cls-1" d="M279.8,85.51a4.62,4.62,0,0,0,1.13,3,22.29,22.29,0,0,0,6.37,4.9,22.91,22.91,0,0,0,7.36,2.44,22.65,22.65,0,0,0-1.84-6.38,21.79,21.79,0,0,0-5.25-7.4,4.6,4.6,0,0,0-3.13-1.23A4.66,4.66,0,0,0,279.8,85.51Z"/><path class="cls-2" d="M312.72,109.08a4.62,4.62,0,0,0-1.13-3,22.29,22.29,0,0,0-6.37-4.9,22.91,22.91,0,0,0-7.36-2.44,22.65,22.65,0,0,0,1.84,6.38,21.79,21.79,0,0,0,5.25,7.4,4.6,4.6,0,0,0,3.13,1.23A4.66,4.66,0,0,0,312.72,109.08Z"/><path class="cls-2" d="M312.72,85.5a4.62,4.62,0,0,1-1.13,3,22.29,22.29,0,0,1-6.37,4.9,22.91,22.91,0,0,1-7.36,2.44,22.65,22.65,0,0,1,1.84-6.38,21.79,21.79,0,0,1,5.25-7.4,4.6,4.6,0,0,1,3.13-1.23A4.66,4.66,0,0,1,312.72,85.5Z"/><path class="cls-1" d="M279.81,143.59a4.62,4.62,0,0,1,1.13-3,22.29,22.29,0,0,1,6.37-4.9,22.91,22.91,0,0,1,7.36-2.44,22.65,22.65,0,0,1-1.84,6.38,21.79,21.79,0,0,1-5.25,7.4,4.6,4.6,0,0,1-3.13,1.23A4.66,4.66,0,0,1,279.81,143.59Z"/><path class="cls-1" d="M279.81,120a4.62,4.62,0,0,0,1.13,3,22.29,22.29,0,0,0,6.37,4.9,22.91,22.91,0,0,0,7.36,2.44,22.65,22.65,0,0,0-1.84-6.38,21.79,21.79,0,0,0-5.25-7.4,4.6,4.6,0,0,0-3.13-1.23A4.66,4.66,0,0,0,279.81,120Z"/><path class="cls-2" d="M312.73,143.58a4.62,4.62,0,0,0-1.13-3,22.29,22.29,0,0,0-6.37-4.9,22.91,22.91,0,0,0-7.36-2.44,22.65,22.65,0,0,0,1.84,6.38A21.79,21.79,0,0,0,305,147a4.6,4.6,0,0,0,3.13,1.23A4.66,4.66,0,0,0,312.73,143.58Z"/><path class="cls-2" d="M312.73,120a4.62,4.62,0,0,1-1.13,3,22.29,22.29,0,0,1-6.37,4.9,22.91,22.91,0,0,1-7.36,2.44,22.65,22.65,0,0,1,1.84-6.38,21.79,21.79,0,0,1,5.25-7.4,4.6,4.6,0,0,1,3.13-1.23A4.66,4.66,0,0,1,312.73,120Z"/><line class="cls-5" x1="296.27" y1="118.98" x2="295.47" y2="130.8"/><line class="cls-5" x1="283.2" y1="131.8" x2="295.47" y2="130.8"/><line class="cls-5" x1="295.46" y1="132.75" x2="283.2" y2="131.8"/><line class="cls-5" x1="296.27" y1="144.61" x2="295.46" y2="132.75"/><line class="cls-4" x1="296.27" y1="118.98" x2="296.96" y2="130.79"/><line class="cls-4" x1="308.84" y1="131.8" x2="296.96" y2="130.79"/><line class="cls-4" x1="296.96" y1="132.75" x2="308.84" y2="131.8"/><line class="cls-4" x1="296.27" y1="144.61" x2="296.96" y2="132.75"/><line class="cls-5" x1="296.26" y1="84.48" x2="295.46" y2="96.3"/><line class="cls-5" x1="283.19" y1="97.3" x2="295.46" y2="96.3"/><line class="cls-5" x1="295.45" y1="98.25" x2="283.19" y2="97.3"/><line class="cls-5" x1="296.26" y1="110.11" x2="295.45" y2="98.25"/><line class="cls-4" x1="296.26" y1="84.48" x2="296.95" y2="96.29"/><line class="cls-4" x1="308.83" y1="97.3" x2="296.95" y2="96.29"/><line class="cls-4" x1="296.95" y1="98.25" x2="308.83" y2="97.3"/><line class="cls-4" x1="296.26" y1="110.11" x2="296.95" y2="98.25"/><line class="cls-5" x1="296.27" y1="49.98" x2="295.47" y2="61.8"/><line class="cls-5" x1="283.2" y1="62.8" x2="295.47" y2="61.8"/><line class="cls-5" x1="295.46" y1="63.75" x2="283.2" y2="62.8"/><line class="cls-5" x1="296.27" y1="75.61" x2="295.46" y2="63.75"/><line class="cls-4" x1="296.27" y1="49.98" x2="296.96" y2="61.79"/><line class="cls-4" x1="308.84" y1="62.8" x2="296.96" y2="61.79"/><line class="cls-4" x1="296.96" y1="63.75" x2="308.84" y2="62.8"/><line class="cls-4" x1="296.27" y1="75.61" x2="296.96" y2="63.75"/><line class="cls-5" x1="296.26" y1="15.48" x2="295.46" y2="27.3"/><line class="cls-5" x1="283.19" y1="28.3" x2="295.46" y2="27.3"/><line class="cls-5" x1="295.45" y1="29.25" x2="283.19" y2="28.3"/><line class="cls-5" x1="296.26" y1="41.11" x2="295.45" y2="29.25"/><line class="cls-4" x1="296.26" y1="15.48" x2="296.95" y2="27.29"/><line class="cls-4" x1="308.83" y1="28.3" x2="296.95" y2="27.29"/><line class="cls-4" x1="296.95" y1="29.25" x2="308.83" y2="28.3"/><line class="cls-4" x1="296.26" y1="41.11" x2="296.95" y2="29.25"/><text class="cls-6" transform="translate(14.08 65.22)">BMB</text><text class="cls-7" transform="translate(357.06 182.21)">PROJECT</text><polyline class="cls-8" points="513.08 182.72 513.08 16.38 357.08 16.38"/><polyline class="cls-8" points="10.03 11.87 10.03 180.21 168.08 180.21"/></svg>