<svg xmlns="http://www.w3.org/2000/svg" version="1.1" xmlns:xlink="http://www.w3.org/1999/xlink" width="512" height="512" x="0" y="0" viewBox="0 0 512 512" style="enable-background:new 0 0 512 512" xml:space="preserve" class="">
    <g transform="matrix(1.1399999999999992,0,0,1.1399999999999992,-35.839999999999804,-35.839999999999804)">
        <path d="M303.8 158.9h-95.5c-27.2 0-49.4 22.1-49.4 49.4v95.5c0 27.2 22.1 49.4 49.4 49.4h95.5c27.2 0 49.4-22.1 49.4-49.4v-95.5c-.1-27.3-22.2-49.4-49.4-49.4zm-47.8 161c-35.2 0-63.9-28.7-63.9-63.9s28.7-63.9 63.9-63.9 63.9 28.7 63.9 63.9-28.7 63.9-63.9 63.9zm67.1-120.7c-6 0-10.8-4.8-10.8-10.8s4.8-10.8 10.8-10.8 10.8 4.8 10.8 10.8-4.8 10.8-10.8 10.8z" opacity="1" data-original="#000000" class=""></path>
        <circle cx="256" cy="256" r="38.8" transform="rotate(-89.31 256.026 255.981)" opacity="1" data-original="#000000" class=""></circle>
        <path d="M256 31C131.7 31 31 131.7 31 256s100.7 225 225 225 225-100.7 225-225S380.3 31 256 31zm125 272.8c0 42.6-34.6 77.2-77.2 77.2h-95.5c-42.6 0-77.2-34.6-77.2-77.2v-95.5c0-42.6 34.6-77.2 77.2-77.2h95.5c42.6 0 77.2 34.6 77.2 77.2z" opacity="1" data-original="#000000" class=""></path>
    </g>
</svg>